<?xml version="1.0" encoding="utf-8"?>
<!-- Generator: Adobe Illustrator 28.2.0, SVG Export Plug-In . SVG Version: 6.00 Build 0)  -->
<svg version="1.1" id="Layer_1" xmlns="http://www.w3.org/2000/svg" xmlns:xlink="http://www.w3.org/1999/xlink" x="0px" y="0px"
	 viewBox="0 0 63 63" style="enable-background:new 0 0 63 63;" xml:space="preserve">
<style type="text/css">
	.st0{fill:none;}
	.st1{fill:none;stroke:#14A4A2;stroke-width:3;}
</style>
<g id="Grupo_157" transform="translate(-1770 -188)">
	<g id="Grupo_158" transform="translate(0 1)">
		<g id="Ret창ngulo_85" transform="translate(1786 201)">
			<path class="st0" d="M2,0h10c1.1,0,2,0.9,2,2v10c0,1.1-0.9,2-2,2H2c-1.1,0-2-0.9-2-2V2C0,0.9,0.9,0,2,0z"/>
			<path class="st1" d="M2,1.5h10c0.3,0,0.5,0.2,0.5,0.5v10c0,0.3-0.2,0.5-0.5,0.5H2c-0.3,0-0.5-0.2-0.5-0.5V2
				C1.5,1.7,1.7,1.5,2,1.5z"/>
		</g>
		<g id="Ret창ngulo_88" transform="translate(1786 217)">
			<path class="st0" d="M2,0h10c1.1,0,2,0.9,2,2v10c0,1.1-0.9,2-2,2H2c-1.1,0-2-0.9-2-2V2C0,0.9,0.9,0,2,0z"/>
			<path class="st1" d="M2,1.5h10c0.3,0,0.5,0.2,0.5,0.5v10c0,0.3-0.2,0.5-0.5,0.5H2c-0.3,0-0.5-0.2-0.5-0.5V2
				C1.5,1.7,1.7,1.5,2,1.5z"/>
		</g>
		<g id="Ret창ngulo_86" transform="translate(1803 201)">
			<path class="st0" d="M2,0h10c1.1,0,2,0.9,2,2v10c0,1.1-0.9,2-2,2H2c-1.1,0-2-0.9-2-2V2C0,0.9,0.9,0,2,0z"/>
			<path class="st1" d="M2,1.5h10c0.3,0,0.5,0.2,0.5,0.5v10c0,0.3-0.2,0.5-0.5,0.5H2c-0.3,0-0.5-0.2-0.5-0.5V2
				C1.5,1.7,1.7,1.5,2,1.5z"/>
		</g>
		<g id="Ret창ngulo_87" transform="translate(1803 217)">
			<path class="st0" d="M2,0h10c1.1,0,2,0.9,2,2v10c0,1.1-0.9,2-2,2H2c-1.1,0-2-0.9-2-2V2C0,0.9,0.9,0,2,0z"/>
			<path class="st1" d="M2,1.5h10c0.3,0,0.5,0.2,0.5,0.5v10c0,0.3-0.2,0.5-0.5,0.5H2c-0.3,0-0.5-0.2-0.5-0.5V2
				C1.5,1.7,1.7,1.5,2,1.5z"/>
		</g>
	</g>
</g>
</svg>
