<?xml version="1.0" encoding="utf-8"?>
<!-- Generator: Adobe Illustrator 28.2.0, SVG Export Plug-In . SVG Version: 6.00 Build 0)  -->
<svg version="1.1" id="Layer_1" xmlns="http://www.w3.org/2000/svg" xmlns:xlink="http://www.w3.org/1999/xlink" x="0px" y="0px"
	 viewBox="0 0 63 63" style="enable-background:new 0 0 63 63;" xml:space="preserve">
<style type="text/css">
	.st0{clip-path:url(#SVGID_00000171714235220585924440000005870975548294045581_);}
	.st1{fill:#14A5A2;}
</style>
<g id="Grupo_163" transform="translate(35.169 33.35)">
	<g id="Grupo_161" transform="translate(1754 171)">
		<g>
			<defs>
				<rect id="SVGID_1_" x="-1770" y="-188" width="24.7" height="24.7"/>
			</defs>
			<clipPath id="SVGID_00000140699019936440392360000001765647431996269971_">
				<use xlink:href="#SVGID_1_"  style="overflow:visible;"/>
			</clipPath>
			
				<g id="Grupo_160" transform="translate(0 0)" style="clip-path:url(#SVGID_00000140699019936440392360000001765647431996269971_);">
				<path id="Caminho_77" class="st1" d="M-1754.7-188c0.7,0.3,1.2,1,1.1,1.8c0,2,0,4,0,5.9c0,0.4,0.1,0.4,0.5,0.4c2,0,4,0,5.9,0
					c0.9-0.1,1.7,0.5,1.9,1.4c0,0.2,0,0.3,0,0.5c0,1.5,0,3.1,0,4.6c0.1,0.9-0.6,1.7-1.5,1.8c-0.1,0-0.2,0-0.3,0c-2,0-4,0-6.1,0
					c-0.5,0-0.5,0-0.5,0.5c0,2,0,4,0,5.9c0.1,0.9-0.5,1.7-1.4,1.8c-0.1,0-0.2,0-0.4,0c-1.5,0-3.1,0-4.6,0c-0.9,0.1-1.6-0.5-1.7-1.4
					c0-0.1,0-0.1,0-0.2c-0.1-0.8,0-1.6,0-2.4c0-1.2,0-2.5,0-3.7c0-0.5,0-0.5-0.5-0.5c-1.9,0-3.8,0-5.8,0c-0.9,0.1-1.7-0.4-2-1.2
					v-5.8c0.3-0.8,1.1-1.4,2-1.2c1.9,0,3.8,0,5.6,0c0.6,0,0.6,0,0.6-0.6c0-1.9,0-3.8,0-5.7c-0.1-0.8,0.4-1.6,1.1-1.9H-1754.7z"/>
			</g>
		</g>
	</g>
</g>
</svg>
