<?xml version="1.0" encoding="utf-8"?>
<!-- Generator: Adobe Illustrator 28.2.0, SVG Export Plug-In . SVG Version: 6.00 Build 0)  -->
<svg version="1.1" id="Layer_1" xmlns="http://www.w3.org/2000/svg" xmlns:xlink="http://www.w3.org/1999/xlink" x="0px" y="0px"
	 viewBox="0 0 63 63" style="enable-background:new 0 0 63 63;" xml:space="preserve">
<style type="text/css">
	.st0{clip-path:url(#SVGID_00000166667455624800683530000013323803372070154932_);}
	.st1{fill:#14A5A2;}
</style>
<g id="Grupo_156" transform="translate(-1770 -188)">
	<g id="Grupo_155" transform="translate(1788 205)">
		<g>
			<defs>
				<rect id="SVGID_1_" y="0" width="27.3" height="23.7"/>
			</defs>
			<clipPath id="SVGID_00000117661343627603653230000001854975334810788787_">
				<use xlink:href="#SVGID_1_"  style="overflow:visible;"/>
			</clipPath>
			<g id="Grupo_154" style="clip-path:url(#SVGID_00000117661343627603653230000001854975334810788787_);">
				<path id="Caminho_74" class="st1" d="M13.8,11.5c-0.6-0.2-1.2-0.4-1.7-0.6c-3.8-1.5-7.5-3-11.3-4.5c-0.1,0-0.2-0.1-0.3-0.1
					C0.4,6.2,0.2,6.1,0.2,5.9s0.2-0.3,0.3-0.4c0.5-0.2,1.1-0.5,1.7-0.7c3.4-1.5,6.8-3,10.3-4.5c0.7-0.4,1.6-0.5,2.3-0.1
					c4,1.8,8,3.5,12,5.2c0.2,0.1,0.4,0.1,0.4,0.4c0,0.3-0.2,0.3-0.4,0.4c-2.1,0.9-4.2,1.7-6.3,2.6c-2,0.8-3.9,1.6-5.9,2.4
					C14.3,11.3,14,11.4,13.8,11.5"/>
				<path id="Caminho_75" class="st1" d="M5.2,9.5c0.3,0.1,0.5,0.2,0.8,0.3c2.2,0.9,4.4,1.8,6.7,2.7c0.7,0.3,1.5,0.2,2.2-0.1
					c2.3-0.9,4.6-1.8,6.8-2.7c0.3-0.1,0.6-0.1,0.8,0c1.4,0.6,2.8,1.3,4.3,1.9c0.2,0.1,0.5,0.1,0.4,0.4c0,0.2-0.3,0.3-0.5,0.3
					c-2.9,1.2-5.7,2.3-8.6,3.5c-1.4,0.6-2.7,1.1-4.1,1.7c-0.2,0.1-0.4,0.1-0.6,0c-2.7-1.1-5.4-2.2-8.2-3.2c-1.6-0.6-3.2-1.2-4.8-1.9
					c-0.2-0.1-0.4-0.1-0.5-0.3c0-0.3,0.2-0.3,0.4-0.4c1.5-0.7,2.9-1.4,4.4-2C5,9.6,5.1,9.6,5.2,9.5"/>
				<path id="Caminho_76" class="st1" d="M13.8,23.7c-0.1,0-0.2-0.1-0.3-0.1l-10.1-4c-1-0.4-2.1-0.8-3.1-1.2C0.2,18.3,0,18.3,0,18.1
					c0-0.2,0.2-0.2,0.3-0.3c1.5-0.7,3-1.3,4.5-2c0.3-0.1,0.5-0.1,0.8,0c2.5,1,4.9,2,7.4,3c0.4,0.2,0.9,0.2,1.3,0c2.4-1,4.9-2,7.3-3
					c0.3-0.1,0.5-0.1,0.8,0c1.5,0.7,3,1.3,4.5,2c0.1,0.1,0.4,0.1,0.3,0.3c0,0.2-0.2,0.2-0.3,0.3l-12.8,5.2
					C14,23.6,13.9,23.6,13.8,23.7"/>
			</g>
		</g>
	</g>
</g>
</svg>
