<?xml version="1.0" encoding="utf-8"?>
<!-- Generator: Adobe Illustrator 28.2.0, SVG Export Plug-In . SVG Version: 6.00 Build 0)  -->
<svg version="1.1" id="Layer_1" xmlns="http://www.w3.org/2000/svg" xmlns:xlink="http://www.w3.org/1999/xlink" x="0px" y="0px"
	 viewBox="0 0 63 63" style="enable-background:new 0 0 63 63;" xml:space="preserve">
<style type="text/css">
	.st0{clip-path:url(#SVGID_00000076601771301159306930000005365998298176361600_);}
	.st1{fill:#14A5A2;}
</style>
<g id="Grupo_183" transform="translate(1789.069 204.106)">
	<g>
		<defs>
			<rect id="SVGID_1_" x="-1770" y="-188" width="24" height="24"/>
		</defs>
		<clipPath id="SVGID_00000090266242895512542870000016292591298987718064_">
			<use xlink:href="#SVGID_1_"  style="overflow:visible;"/>
		</clipPath>
		<g id="Grupo_182" style="clip-path:url(#SVGID_00000090266242895512542870000016292591298987718064_);">
			<path id="Caminho_84" class="st1" d="M-1748.4-183.8c0-1.8-0.1-1.8-2-1.8c-0.9,0-1.8,0-2.7,0c-0.7,0-1.2-0.5-1.2-1.2
				c0-0.7,0.5-1.2,1.2-1.2c1.9,0,3.9,0,5.8,0c0.7,0,1.3,0.5,1.3,1.2c0,0.1,0,0.1,0,0.2c0,1.9,0,3.9,0,5.8c0.1,0.7-0.4,1.2-1.1,1.3
				c-0.7,0.1-1.2-0.4-1.3-1.1c0-0.1,0-0.2,0-0.2C-1748.4-181.9-1748.4-182.8-1748.4-183.8"/>
			<path id="Caminho_85" class="st1" d="M-1767.6-183.8c0-1.8,0.1-1.8,2-1.8c0.9,0,1.8,0,2.7,0c0.7,0,1.2-0.5,1.2-1.2
				c0-0.7-0.5-1.2-1.2-1.2c0,0,0,0,0,0c-1.9,0-3.8,0-5.8,0c-0.7,0-1.3,0.5-1.3,1.1c0,0.1,0,0.1,0,0.2c0,1.9,0,3.9,0,5.8
				c-0.1,0.7,0.4,1.2,1.1,1.3c0,0,0.1,0,0.1,0c0.7,0,1.2-0.6,1.2-1.2c0,0,0-0.1,0-0.1C-1767.6-181.9-1767.6-182.8-1767.6-183.8"/>
			<path id="Caminho_86" class="st1" d="M-1748.4-168.2c0,1.8-0.1,1.8-2,1.8c-0.9,0-1.8,0-2.7,0c-0.7,0-1.2,0.5-1.2,1.2
				s0.5,1.2,1.2,1.2c1.9,0,3.9,0,5.8,0c0.7,0,1.3-0.5,1.3-1.2c0-0.1,0-0.1,0-0.2c0-1.9,0-3.9,0-5.8c0.1-0.7-0.4-1.2-1.1-1.3
				c-0.7-0.1-1.2,0.4-1.3,1.1c0,0.1,0,0.2,0,0.2C-1748.4-170.1-1748.4-169.2-1748.4-168.2"/>
			<path id="Caminho_87" class="st1" d="M-1767.6-168.2c0,1.8,0.1,1.8,2,1.8c0.9,0,1.8,0,2.7,0c0.7,0,1.2,0.5,1.2,1.2
				c0,0.7-0.5,1.2-1.2,1.2c-1.9,0-3.9,0-5.8,0c-0.7,0-1.3-0.5-1.3-1.2c0-0.1,0-0.1,0-0.2c0-1.9,0-3.9,0-5.8
				c-0.1-0.7,0.4-1.3,1.1-1.3c0,0,0.1,0,0.1,0c0.7,0,1.2,0.6,1.2,1.2c0,0,0,0.1,0,0.1C-1767.6-170.1-1767.6-169.2-1767.6-168.2"/>
		</g>
	</g>
</g>
</svg>
