<svg id="Grupo_234" data-name="Grupo 234" xmlns="http://www.w3.org/2000/svg" xmlns:xlink="http://www.w3.org/1999/xlink" width="18.21" height="31.366" viewBox="0 0 18.21 31.366">
  <defs>
    <clipPath id="clip-path">
      <rect id="Retângulo_122" data-name="Retângulo 122" width="18.21" height="31.366" fill="#17a3a2"/>
    </clipPath>
  </defs>
  <g id="Grupo_233" data-name="Grupo 233" clip-path="url(#clip-path)">
    <path id="Caminho_162" data-name="Caminho 162" d="M205.941,300.92a.4.4,0,0,1,.263-.1c.768-.073,1.714.1,2.5.092a.35.35,0,0,1,0,.684c-.735-.036-1.552.018-2.279-.041a.95.95,0,0,1-.472-.131.372.372,0,0,1-.01-.5" transform="translate(-194.522 -284.249)" fill="#17a3a2"/>
    <path id="Caminho_163" data-name="Caminho 163" d="M118.146,298.287a.577.577,0,0,1,.148-.088c.87-.02,1.744.058,2.615.075a.353.353,0,0,1,0,.685c-.751.118-1.715-.125-2.491-.044a.376.376,0,0,1-.27-.628" transform="translate(-111.549 -281.788)" fill="#17a3a2"/>
    <path id="Caminho_164" data-name="Caminho 164" d="M118.821,259.841a.358.358,0,0,1,.137.7c-.706.225-1.7.2-2.436.41a.361.361,0,0,1-.106-.712c.694-.223,1.68-.2,2.4-.4" transform="translate(-109.749 -245.542)" fill="#17a3a2"/>
    <path id="Caminho_165" data-name="Caminho 165" d="M205.239,245.714c.213-.018.46-.027.517.234s-.075.386-.3.456c-.719.221-1.687.213-2.434.4a.357.357,0,0,1-.1-.7c.755-.088,1.567-.332,2.317-.4" transform="translate(-191.518 -232.187)" fill="#17a3a2"/>
    <path id="Caminho_166" data-name="Caminho 166" d="M111.9,337.941a.5.5,0,0,1,.229.011c.727.13,1.589.568,2.335.723a.359.359,0,0,1-.2.678c-.739-.284-1.667-.414-2.382-.722a.364.364,0,0,1,.018-.689" transform="translate(-105.503 -319.338)" fill="#17a3a2"/>
    <path id="Caminho_167" data-name="Caminho 167" d="M195.736,363.735a.845.845,0,0,1,.409.047c.708.166,1.43.483,2.144.654a.361.361,0,0,1-.175.692l-2.41-.734a.35.35,0,0,1,.031-.659" transform="translate(-184.731 -343.71)" fill="#17a3a2"/>
    <path id="Caminho_168" data-name="Caminho 168" d="M30.667,295.077l2.529.079a.358.358,0,0,1,.194.619c-.2.181-.338.067-.534.065-.7-.006-1.4-.03-2.107-.045a.363.363,0,0,1-.081-.719" transform="translate(-28.704 -278.841)" fill="#17a3a2"/>
    <path id="Caminho_169" data-name="Caminho 169" d="M31.919,274.47c.2-.018.406-.069.535.128.155.237.039.4-.171.536-.757.057-1.659.378-2.4.4-.518.017-.612-.51-.237-.67a16.193,16.193,0,0,1,2.273-.4" transform="translate(-27.8 -259.349)" fill="#17a3a2"/>
    <path id="Caminho_170" data-name="Caminho 170" d="M27.148,246.436a.376.376,0,0,1,.034.459c-.763.458-1.625.762-2.431,1.146a.357.357,0,0,1-.2-.68l2.258-1.016a.358.358,0,0,1,.342.09" transform="translate(-22.991 -232.779)" fill="#17a3a2"/>
    <path id="Caminho_171" data-name="Caminho 171" d="M186.972,173.84a.363.363,0,0,1,.2.67l-2.286,1.031a.359.359,0,0,1-.242-.674Z" transform="translate(-174.291 -164.275)" fill="#17a3a2"/>
    <path id="Caminho_172" data-name="Caminho 172" d="M27.649,312.855a.744.744,0,0,1,.282,0,16.458,16.458,0,0,1,2.271.7c.432.212.242.724-.233.664a17.979,17.979,0,0,1-2.308-.706c-.322-.162-.345-.583-.012-.658" transform="translate(-25.901 -295.628)" fill="#17a3a2"/>
    <path id="Caminho_173" data-name="Caminho 173" d="M104.363,211.9a.379.379,0,0,1,.149-.58l2.195-.992a.356.356,0,0,1,.3.645c-.58.392-1.567.621-2.191,1a.437.437,0,0,1-.453-.069" transform="translate(-98.542 -198.739)" fill="#17a3a2"/>
    <path id="Caminho_174" data-name="Caminho 174" d="M122.659,473.547c.167-.009.3.157.4.266.5.509.915,1.123,1.438,1.619.3.408-.127.847-.537.494-.541-.466-1.047-1.308-1.591-1.81a.362.362,0,0,1,.286-.568" transform="translate(-115.575 -447.491)" fill="#17a3a2"/>
    <path id="Caminho_175" data-name="Caminho 175" d="M1.62,200.25a.369.369,0,0,1,.408.5L.622,202.828a.357.357,0,0,1-.593-.378c.481-.6.874-1.464,1.369-2.032a.428.428,0,0,1,.222-.168" transform="translate(0 -189.226)" fill="#17a3a2"/>
    <path id="Caminho_176" data-name="Caminho 176" d="M99.277,56.294a.362.362,0,0,1,.364.54c-.487.548-.869,1.493-1.365,1.993-.352.355-.756.05-.591-.377l1.35-2.008a.491.491,0,0,1,.242-.149" transform="translate(-92.274 -53.191)" fill="#17a3a2"/>
    <path id="Caminho_177" data-name="Caminho 177" d="M7.239,343.4c.151-.031.2.018.314.1a17.657,17.657,0,0,1,1.567,1.748c.343.472-.122.844-.493.536L7.016,343.95c-.167-.186.006-.505.223-.55" transform="translate(-6.567 -324.496)" fill="#17a3a2"/>
    <path id="Caminho_178" data-name="Caminho 178" d="M50.838,128.108a.393.393,0,0,1,.076.415c-.478.582-.859,1.42-1.336,1.978-.373.437-.822.092-.638-.336.447-.58.791-1.244,1.231-1.826.167-.221.366-.506.667-.231" transform="translate(-46.206 -120.952)" fill="#17a3a2"/>
    <path id="Caminho_179" data-name="Caminho 179" d="M146.618,105.507a.35.35,0,0,1,.356.573l-1.811,1.59c-.4.3-.788-.117-.515-.515.588-.435,1.088-.99,1.66-1.44a1.254,1.254,0,0,1,.31-.208" transform="translate(-136.603 -99.691)" fill="#17a3a2"/>
    <path id="Caminho_180" data-name="Caminho 180" d="M80.873,162.608c.348-.081.55.219.4.531l-1.857,1.631a.357.357,0,0,1-.559-.43c.54-.488,1.072-1,1.638-1.462a1.716,1.716,0,0,1,.376-.27" transform="translate(-74.475 -153.648)" fill="#17a3a2"/>
    <path id="Caminho_181" data-name="Caminho 181" d="M166.027,428.439a.393.393,0,0,1-.415.076l-2.022-1.336a.357.357,0,1,1,.358-.616,20.58,20.58,0,0,1,2.047,1.354.352.352,0,0,1,.032.522" transform="translate(-154.421 -403.055)" fill="#17a3a2"/>
    <path id="Caminho_182" data-name="Caminho 182" d="M15.288,219.758a.348.348,0,0,1,.38.552l-1.853,1.634a.361.361,0,0,1-.563-.39,12.064,12.064,0,0,1,1.316-1.226,5.511,5.511,0,0,1,.72-.571" transform="translate(-12.507 -207.656)" fill="#17a3a2"/>
    <path id="Caminho_183" data-name="Caminho 183" d="M65.088,408.415a.43.43,0,0,1,.309.1l1.616,1.829a.356.356,0,0,1-.474.517l-1.63-1.815a.376.376,0,0,1,.179-.635" transform="translate(-61.229 -385.939)" fill="#17a3a2"/>
    <path id="Caminho_184" data-name="Caminho 184" d="M91.494,378.537a.548.548,0,0,1,.312.014l2.047,1.354a.361.361,0,0,1-.354.613c-.614-.471-1.473-.865-2.057-1.346-.215-.177-.23-.569.052-.636" transform="translate(-86.258 -357.694)" fill="#17a3a2"/>
    <path id="Caminho_185" data-name="Caminho 185" d="M21.325,331.632a.361.361,0,0,1-.448.556l-2.037-1.364a.354.354,0,0,1,.377-.592Z" transform="translate(-17.684 -312.033)" fill="#17a3a2"/>
    <path id="Caminho_186" data-name="Caminho 186" d="M279.813,388.827a.394.394,0,0,1,.151,0,12.668,12.668,0,0,1,1.408.447.361.361,0,0,1-.229.663,12.894,12.894,0,0,1-1.392-.42.369.369,0,0,1,.062-.691" transform="translate(-264.158 -367.426)" fill="#17a3a2"/>
    <path id="Caminho_187" data-name="Caminho 187" d="M290.938,234.151a.365.365,0,0,1,.174.684,10.209,10.209,0,0,1-1.431.252.359.359,0,0,1-.234-.668c.311-.168,1.121-.137,1.491-.268" transform="translate(-273.346 -221.267)" fill="#17a3a2"/>
    <path id="Caminho_188" data-name="Caminho 188" d="M236.383,474.161c.125-.02.181.035.282.087a7.787,7.787,0,0,1,1.227.883c0,1.157-1.281-.144-1.714-.353a.373.373,0,0,1,.206-.618" transform="translate(-223.094 -448.067)" fill="#17a3a2"/>
    <path id="Caminho_189" data-name="Caminho 189" d="M211.2,60.914a.361.361,0,0,1,.394.566,13.4,13.4,0,0,1-1.056.924c-.42.263-.772-.159-.509-.509a12.537,12.537,0,0,1,1.032-.9.377.377,0,0,1,.138-.077" transform="translate(-198.387 -57.551)" fill="#17a3a2"/>
    <path id="Caminho_190" data-name="Caminho 190" d="M147.283,0a.367.367,0,0,1,.378.467c-.019.072-.752,1.174-.823,1.244a.362.362,0,0,1-.6-.386c.021-.068.726-1.107.8-1.182A.411.411,0,0,1,147.283,0" transform="translate(-138.171 0)" fill="#17a3a2"/>
    <path id="Caminho_191" data-name="Caminho 191" d="M266.181,146.235l-1.441.652a.353.353,0,0,1-.223-.657l1.364-.618a.372.372,0,0,1,.3.624" transform="translate(-249.795 -137.599)" fill="#17a3a2"/>
    <path id="Caminho_192" data-name="Caminho 192" d="M293.756,304.044a.4.4,0,0,1,.221-.1,6.889,6.889,0,0,1,1.5.054.353.353,0,0,1,.139.595,2.673,2.673,0,0,1-1.079.087c-.149-.008-.476-.023-.6-.046a.374.374,0,0,1-.181-.588" transform="translate(-277.515 -287.201)" fill="#17a3a2"/>
    <path id="Caminho_193" data-name="Caminho 193" d="M180.264,538.966a.417.417,0,0,1,.379.076,10.858,10.858,0,0,1,.9,1.036c.234.37-.131.743-.472.515a10.116,10.116,0,0,1-.925-1.012c-.155-.218-.205-.543.117-.615" transform="translate(-170.12 -509.296)" fill="#17a3a2"/>
  </g>
</svg>
