<?xml version="1.0" encoding="utf-8"?>
<!-- Generator: Adobe Illustrator 28.2.0, SVG Export Plug-In . SVG Version: 6.00 Build 0)  -->
<svg version="1.1" id="Layer_1" xmlns="http://www.w3.org/2000/svg" xmlns:xlink="http://www.w3.org/1999/xlink" x="0px" y="0px"
	 viewBox="0 0 63 63" style="enable-background:new 0 0 63 63;" xml:space="preserve">
<style type="text/css">
	.st0{fill:#14A5A2;}
</style>
<g id="Grupo_171" transform="translate(1784 206.396)">
	<g>
		<g id="Grupo_170" transform="translate(0.001 0.269)">
			<g id="Grupo_169" transform="translate(-0.001 0)">
				<g>
					<g id="Grupo_168" transform="translate(0 0)">
						<g id="Grupo_167">
							<g>
								<g id="Grupo_166">
									<path id="Caminho_78" class="st0" d="M-1751.8-188.1l12.6,7.2h0.1c0.9,0.5,0.9,1,0.1,1.6c-2.3,1.4-4.6,2.8-6.9,4.2
										c-1.7,1-3.4,2.1-5.1,3.1c-0.5,0.3-1.1,0.3-1.5,0c-4.1-2.5-8.3-4.9-12.4-7.4c-0.9-0.5-0.9-1,0-1.6l12.4-7
										c0.1-0.1,0.2-0.1,0.3-0.2L-1751.8-188.1L-1751.8-188.1z M-1740.7-180.1c-0.1-0.2-0.2-0.2-0.4-0.3c-3.6-2-7.1-4-10.7-6.1
										c-0.3-0.2-0.6-0.2-0.9,0c-3.6,2-7.2,4-10.8,6.1c-0.4,0.2-0.3,0.3,0,0.5c3.7,2.2,7.3,4.4,11,6.5c0.2,0.2,0.5,0.2,0.7,0
										c0.6-0.4,1.3-0.8,1.9-1.2c2.9-1.7,5.8-3.5,8.6-5.2C-1740.9-179.8-1740.7-179.9-1740.7-180.1"/>
									<path id="Caminho_79" class="st0" d="M-1756.2-167.4c-0.6-0.6-0.5-1,0.5-1.4l-12.5-7.4c0,0.2,0.1,0.3,0.1,0.4
										c0.1,0.4-0.1,0.7-0.4,0.8h-0.1c-0.4,0.1-0.7-0.2-0.8-0.6c-0.1-0.6-0.3-1.1-0.5-1.7v-0.7c0.3-0.3,0.7-0.5,1.1-0.6
										s0.9-0.2,1.3-0.3s0.8-0.1,1,0.4s-0.1,0.7-0.6,0.9c-0.1,0-0.2,0.1-0.3,0.2l3.1,1.9c3,1.8,6,3.6,9,5.4
										c0.4,0.2,0.7,0.4,0.7-0.3c0-0.3,0.3-0.6,0.6-0.6l0,0c0.3,0,0.6,0.2,0.7,0.6l0,0c0.1,0.7,0.1,1.5,0.2,2.2
										c0,0.5-0.3,0.7-0.7,0.7c-0.3,0-0.7,0-1,0.1L-1756.2-167.4z"/>
									<path id="Caminho_80" class="st0" d="M-1734.6-176.7c-0.1,0.5-0.3,0.9-0.4,1.4c-0.2,0.7-0.5,1-0.9,0.9
										c-0.6-0.2-0.5-0.7-0.4-1.3l-11.9,6.8c0.4,0.2,0.8,0.3,0.8,0.8c0,0.3-0.1,0.5-0.3,0.7h-0.8c-0.5-0.2-1-0.3-1.5-0.5
										c-0.6-0.2-0.8-0.4-0.6-1.1c0.1-0.6,0.3-1.2,0.5-1.7c0.1-0.4,0.3-0.8,0.8-0.7s0.6,0.5,0.5,0.9c0,0.1,0,0.3,0.1,0.3l11.7-6.7
										c-0.1-0.3-0.3-0.2-0.5-0.3c-0.3-0.1-0.4-0.4-0.3-0.7s0.3-0.6,0.6-0.5c1,0.1,2,0.4,2.8,0.9L-1734.6-176.7z"/>
								</g>
							</g>
						</g>
					</g>
				</g>
			</g>
		</g>
	</g>
</g>
</svg>
