<?xml version="1.0" encoding="UTF-8"?>
<svg xmlns="http://www.w3.org/2000/svg" xmlns:xlink="http://www.w3.org/1999/xlink" width="50pt" height="50pt" viewBox="0 0 50 50" version="1.1">
<g id="surface25396872">
<path style=" stroke:none;fill-rule:nonzero;fill:rgb(100%,100%,100%);fill-opacity:1;" d="M 9 4 C 6.238281 4 4 6.238281 4 9 L 4 41 C 4 43.761719 6.238281 46 9 46 L 41 46 C 43.761719 46 46 43.761719 46 41 L 46 9 C 46 6.238281 43.761719 4 41 4 Z M 25 11 C 33.269531 11 40 16.359375 40 22.949219 C 40 25.578125 38.960938 27.960938 36.777344 30.300781 C 35.210938 32.082031 32.660156 34.039062 30.308594 35.660156 C 27.960938 37.261719 25.800781 38.519531 25 38.851562 C 24.679688 38.980469 24.441406 39.039062 24.25 39.039062 C 23.589844 39.039062 23.648438 38.339844 23.699219 38.050781 C 23.738281 37.832031 23.921875 36.789062 23.921875 36.789062 C 23.96875 36.417969 24.019531 35.832031 23.871094 35.460938 C 23.699219 35.050781 23.027344 34.839844 22.539062 34.742188 C 15.339844 33.800781 10 28.847656 10 22.949219 C 10 16.359375 16.730469 11 25 11 Z M 23.992188 18.996094 C 23.488281 19.007812 23 19.390625 23 20 L 23 26 C 23 26.550781 23.449219 27 24 27 C 24.550781 27 25 26.550781 25 26 L 25 23.121094 L 27.183594 26.578125 C 27.75 27.371094 29 26.972656 29 26 L 29 20 C 29 19.449219 28.550781 19 28 19 C 27.449219 19 27 19.449219 27 20 L 27 23 L 24.816406 19.421875 C 24.601562 19.121094 24.292969 18.992188 23.992188 19 Z M 15 19 C 14.449219 19 14 19.449219 14 20 L 14 26 C 14 26.550781 14.449219 27 15 27 L 18 27 C 18.550781 27 19 26.550781 19 26 C 19 25.449219 18.550781 25 18 25 L 16 25 L 16 20 C 16 19.449219 15.550781 19 15 19 Z M 21 19 C 20.449219 19 20 19.449219 20 20 L 20 26 C 20 26.550781 20.449219 27 21 27 C 21.550781 27 22 26.550781 22 26 L 22 20 C 22 19.449219 21.550781 19 21 19 Z M 31 19 C 30.449219 19 30 19.449219 30 20 L 30 26 C 30 26.550781 30.449219 27 31 27 L 34 27 C 34.550781 27 35 26.550781 35 26 C 35 25.449219 34.550781 25 34 25 L 32 25 L 32 24 L 34 24 C 34.554688 24 35 23.550781 35 23 C 35 22.449219 34.554688 22 34 22 L 32 22 L 32 21 L 34 21 C 34.550781 21 35 20.550781 35 20 C 35 19.449219 34.550781 19 34 19 Z M 31 19 "/>
</g>
</svg>
