<svg id="img_step1" xmlns="http://www.w3.org/2000/svg" xmlns:xlink="http://www.w3.org/1999/xlink" width="190" height="190" viewBox="0 0 190 190">
  <defs>
    <linearGradient id="linear-gradient" x1="0.5" x2="0.5" y2="1" gradientUnits="objectBoundingBox">
      <stop offset="0" stop-color="#009688" stop-opacity="0.851"/>
      <stop offset="1" stop-color="#103475"/>
    </linearGradient>
  </defs>
  <rect id="Rectangle_2007" data-name="Rectangle 2007" width="190" height="190" fill="#fff" opacity="0"/>
  <path id="Union_4" data-name="Union 4" d="M10229.513,5547.493a16.518,16.518,0,0,1-16.5-16.5,1.5,1.5,0,0,1,1.5-1.5h10.749v-87a11.514,11.514,0,0,1,11.5-11.5h117a11.513,11.513,0,0,1,11.5,11.5v87h11.251a1.5,1.5,0,0,1,1.5,1.5,16.527,16.527,0,0,1-16.5,16.5Zm0-3h132a13.532,13.532,0,0,0,13.416-12h-64.5a4.038,4.038,0,0,1-3.82,2.761h-22.188a4.03,4.03,0,0,1-3.818-2.761h-64.506A13.524,13.524,0,0,0,10229.513,5544.492Zm-1.25-102v87h134v-87a8.51,8.51,0,0,0-8.5-8.5h-117A8.51,8.51,0,0,0,10228.263,5442.493Zm8.129,84.476a4.369,4.369,0,0,1-4.365-4.365v-79.733a4.371,4.371,0,0,1,4.365-4.365h118.243a4.37,4.37,0,0,1,4.365,4.365V5522.6a4.369,4.369,0,0,1-4.365,4.365Zm-1.394-84.1V5522.6a1.4,1.4,0,0,0,1.394,1.393h118.243a1.4,1.4,0,0,0,1.394-1.393v-79.733a1.4,1.4,0,0,0-1.394-1.394h-118.243A1.4,1.4,0,0,0,10235,5442.871Zm33.15,72.966a4.637,4.637,0,0,1-4.636-4.636V5482a4.634,4.634,0,0,1,4.636-4.634h.865v-2.37a6.137,6.137,0,0,1,6.128-6.131h.87v-.87a6.138,6.138,0,0,1,6.131-6.131h1.37v-1.368a6.138,6.138,0,0,1,6.129-6.131h41.19a6.138,6.138,0,0,1,6.131,6.131v29.21a6.135,6.135,0,0,1-6.131,6.128h-1.37v1.37a6.137,6.137,0,0,1-6.128,6.131h-.87v.87a6.138,6.138,0,0,1-6.131,6.131h-2.368v.867a4.635,4.635,0,0,1-4.633,4.636Zm41.184-3a1.636,1.636,0,0,0,1.633-1.636V5495.96a16.481,16.481,0,0,0-7.824-1.959,16.654,16.654,0,0,0-14.1,7.854,18.108,18.108,0,0,1,9.183,10.981Zm-41.184,0h26.91a15.185,15.185,0,0,0-7.9-8.556,15.09,15.09,0,0,0-20.226,8.013,1.435,1.435,0,0,0,.1.1A1.644,1.644,0,0,0,10268.148,5512.834Zm48.185-5.5a3.135,3.135,0,0,0,3.13-3.131v-14.362a1.519,1.519,0,0,1-.255-.135,16.113,16.113,0,0,0-5.243-2.255v6.821a1.5,1.5,0,0,1,0,2.357v10.705Zm-49.82-25.337v25.045a18.1,18.1,0,0,1,19.712-6.324,19.6,19.6,0,0,1,24.74-8.09V5482a1.636,1.636,0,0,0-1.633-1.636h-41.184A1.637,1.637,0,0,0,10266.513,5482Zm56.821,18.336a3.133,3.133,0,0,0,3.128-3.131v-14.363a1.532,1.532,0,0,1-.253-.134,16.267,16.267,0,0,0-3.745-1.828v19.456Zm7.5-7.5a3.136,3.136,0,0,0,3.131-3.131v-14.364a1.456,1.456,0,0,1-.255-.136,16.221,16.221,0,0,0-4.246-1.988v19.618Zm-16.557-8.389a19.239,19.239,0,0,1,5.188,1.918v-11.371a3.133,3.133,0,0,0-3.13-3.13h-41.191a3.133,3.133,0,0,0-3.128,3.13v2.37h15.271a4.727,4.727,0,0,1,2-.43,4.779,4.779,0,0,1,2.011.43h18.039a4.633,4.633,0,0,1,4.633,4.634v2.415A1.541,1.541,0,0,1,10314.275,5484.445Zm12.187-5.084v-11.369a3.135,3.135,0,0,0-3.128-3.13h-41.191a3.134,3.134,0,0,0-3.13,3.13v.87h37.32a6.138,6.138,0,0,1,6.131,6.131v2.746A19.17,19.17,0,0,1,10326.462,5479.361Zm7.5-7.5v-11.369a3.134,3.134,0,0,0-3.131-3.13h-41.19a3.132,3.132,0,0,0-3.128,3.13v1.368h36.82a6.137,6.137,0,0,1,6.128,6.131v2.113A19.2,19.2,0,0,1,10333.963,5471.862Zm-56.545,16.932a4.867,4.867,0,1,1,4.865,4.868A4.864,4.864,0,0,1,10277.418,5488.794Zm3,0a1.866,1.866,0,1,0,1.864-1.865A1.868,1.868,0,0,0,10280.419,5488.794Z" transform="translate(-10201.012 -5388.992)" stroke="rgba(0,0,0,0)" stroke-miterlimit="10" stroke-width="1" fill="url(#linear-gradient)"/>
</svg>
