<svg id="img_step3" xmlns="http://www.w3.org/2000/svg" xmlns:xlink="http://www.w3.org/1999/xlink" width="190" height="190" viewBox="0 0 190 190">
  <defs>
    <linearGradient id="linear-gradient" x1="0.5" x2="0.5" y2="1" gradientUnits="objectBoundingBox">
      <stop offset="0" stop-color="#009688" stop-opacity="0.851"/>
      <stop offset="1" stop-color="#103475"/>
    </linearGradient>
  </defs>
  <rect id="Rectangle_2009" data-name="Rectangle 2009" width="190" height="190" fill="#fff" opacity="0"/>
  <path id="Union_6" data-name="Union 6" d="M9752.056,5554.162a1.5,1.5,0,0,1-1.5-1.5v-24.627a14.56,14.56,0,0,1,8.791-13.376l6.927-3.174,4.881-3.255a1.493,1.493,0,0,1,.4-.165v-3.337a12.048,12.048,0,0,1-4.777-7.628c-.018-.089-.024-.167-.039-.254a5.636,5.636,0,0,1-3-10.236,1.489,1.489,0,0,1-.327-.914v-2.162a15.436,15.436,0,0,1,15.417-15.417,15.829,15.829,0,0,1,4.093.549,15.3,15.3,0,0,1,5.994,3.223,10.5,10.5,0,0,1,.808.736,15.387,15.387,0,0,1,4.509,10.909v3.669a5.642,5.642,0,0,1-3.431,9.631c-.017.116-.029.236-.052.347a12.187,12.187,0,0,1-4.491,7.331v3.822l3.688,2.458a1.571,1.571,0,0,1,.257.079l9.2,3.839a14.529,14.529,0,0,1,8.961,13.445v24.509a1.5,1.5,0,0,1-1.5,1.5Zm46.347-28.074v25.073h6.966v-23.009a11.536,11.536,0,0,0-7.116-10.677l-7.218-3.012-6.119,10.709a1.5,1.5,0,0,1-1.209.751c-.029,0-.062,0-.091,0a1.482,1.482,0,0,1-.636-.146l2.123,17.636a1.5,1.5,0,0,1-.448,1.261l-5.179,4.981a1.491,1.491,0,0,1-1.039.421h-.029a1.5,1.5,0,0,1-1.052-.463l-4.787-4.982a1.5,1.5,0,0,1-.408-1.216l2.083-17.624a1.475,1.475,0,0,1-.594.131c-.032,0-.062,0-.094,0a1.5,1.5,0,0,1-1.209-.754l-5.964-10.436-5.816,2.664a11.58,11.58,0,0,0-7.011,10.636v23.127h6.967v-25.073a1.5,1.5,0,1,1,3,0v25.073H9795.4v-25.073a1.5,1.5,0,1,1,3,0Zm-23.18,16.979,3.256,3.391,3.559-3.425L9779.985,5526h-2.745Zm1.564-20.325.093.264h3.478l.1-.283-1.83-2.44Zm8.074-10.36-4.334,5.43,2.918,3.888,4.819-8.427-2.677-1.788Zm-15.858.887,4.816,8.429,2.916-3.886-5.061-6.324Zm5.548-3.145a1.317,1.317,0,0,1-.015.138l4.095,5.12,4.63-5.787v-3.347l-.024.01c-.328.128-.66.241-1,.342l-.115.03c-.312.091-.633.167-.953.231l-.094.017a11.81,11.81,0,0,1-4.339.054l-.108-.022c-.3-.052-.594-.116-.887-.19-.071-.017-.143-.034-.214-.054-.32-.088-.633-.185-.945-.3l-.032-.01Zm-4.981-15.213a2.547,2.547,0,0,1,.018.3,7.225,7.225,0,0,0,.14,1.352,9.071,9.071,0,0,0,4.117,6.114,8.842,8.842,0,0,0,2.6,1.108,9.332,9.332,0,0,0,7.471-1.261,9.2,9.2,0,0,0,3.886-5.893,9,9,0,0,0,.141-1.4,1.558,1.558,0,0,1,.015-.167c0-.044,0-.1,0-.153V5486.6c-.068-.049-.135-.106-.2-.155-.13-.1-.259-.2-.387-.3-.189-.15-.379-.308-.563-.465-.123-.106-.244-.212-.364-.32-.192-.177-.38-.359-.562-.544-.1-.1-.205-.2-.3-.3-.275-.291-.544-.588-.8-.9a17.284,17.284,0,0,1-12.512,5.4c-.431,0-.856-.02-1.28-.052-.138-.01-.273-.029-.411-.042-.283-.027-.566-.059-.848-.1-.054-.007-.11-.012-.162-.02Zm-3.891-6a2.653,2.653,0,0,0,.889,4.913v-5.235A2.522,2.522,0,0,0,9765.679,5488.909Zm25.282,4.856a2.642,2.642,0,0,0,.881-4.673,2.457,2.457,0,0,0-.881-.446Zm-24.549-10.234v1.222a13.571,13.571,0,0,0,2.044.736,13.746,13.746,0,0,0,3.814.53,14.049,14.049,0,0,0,11.354-5.676,1.4,1.4,0,0,1,.15-.17c.007-.01.021-.012.029-.022a1.49,1.49,0,0,1,2.138.017l0,0a1.488,1.488,0,0,1,.21.254,13.964,13.964,0,0,0,4.119,4.122q.469.307.961.576v-1.593a12.4,12.4,0,0,0-3.635-8.791,7.338,7.338,0,0,0-.6-.549,12.391,12.391,0,0,0-4.863-2.635,12.812,12.812,0,0,0-3.3-.443A12.433,12.433,0,0,0,9766.412,5483.531Zm40.084,25.8c-.047,0-.091.007-.138.007a1.5,1.5,0,1,1,0-3,2.558,2.558,0,0,0,2.554-2.556V5400.858H9637.2v102.926a2.56,2.56,0,0,0,2.556,2.556h112.572a1.5,1.5,0,0,1,0,3H9639.549c-.071,0-.139-.017-.21-.022-.1,0-.2-.018-.3-.03a5.317,5.317,0,0,1-4.789-4.787c-.013-.1-.022-.2-.029-.3,0-.071-.022-.138-.022-.209v-112.55a5.562,5.562,0,0,1,5.555-5.555h166.6a5.562,5.562,0,0,1,5.556,5.555v112.55c0,.071-.02.138-.022.209-.008.1-.018.2-.029.3a5.318,5.318,0,0,1-4.79,4.787c-.1.012-.2.025-.3.03-.071,0-.138.022-.209.022A.616.616,0,0,1,9806.5,5509.333Zm-169.3-117.891v6.417h171.713v-6.417a2.557,2.557,0,0,0-2.554-2.556h-166.6A2.558,2.558,0,0,0,9637.2,5391.442Zm81.432,102.983-58.964-32.49a1.5,1.5,0,0,1-.773-1.312v-7.22a1.461,1.461,0,0,1,1.49-1.487l3.575-5.363a1.5,1.5,0,0,1,.884-.623l4.248-1.062,2.088-3.127a1.478,1.478,0,0,1,.953-.638l5.57-1.116,8.1-8.1a1.5,1.5,0,0,1,.945-.436l15.09-1.16,2.015-2.015a1.5,1.5,0,0,1,1.062-.438h3.154l3.233-2.155a1.417,1.417,0,0,1,.468-.207l4.41-1.1,3.314-3.317a1.5,1.5,0,0,1,1.536-.362l3.554,1.184,4.758,1.189a1.479,1.479,0,0,1,.7.4l5.846,5.843,4.6,2.3a1.329,1.329,0,0,1,.162.093l14.061,9.375h3.154a1.522,1.522,0,0,1,.773.212l6.016,3.612a1.506,1.506,0,0,1,.571.613l.788,1.579h1.478a1.494,1.494,0,0,1,.364.044l4.814,1.2a1.4,1.4,0,0,1,.379.152l8.425,4.812a1.526,1.526,0,0,1,.272.2c.022.02.037.042.057.062a1.518,1.518,0,0,1,.178.224.755.755,0,0,1,.052.082,1.51,1.51,0,0,1,.133.313l.01.02a1.575,1.575,0,0,1,.05.36c0,.015,0,.027,0,.039v3.61a1.5,1.5,0,0,1-.759,1.305l-61.367,34.9a1.511,1.511,0,0,1-1.465.01Zm-.631-3.775,1.342.741,1.333-.758-1.32-.658Zm-4.506-2.48-3.374-3.376-6.885-2.295c-.029-.01-.062-.02-.091-.032Zm6.53-1.214,1.647.823,11.824-7.525v-1.583a1.5,1.5,0,0,1,.83-1.342l7.218-3.61a1.511,1.511,0,0,1,1.147-.081l2.913.973,2.667-1.778,1.211-2.423-17.628-1.037-18.651,14.263,4.039,4.041,1.44-.719a1.5,1.5,0,0,1,1.342,0Zm-25.07-11.411,9.3,4.132,6.395,2.132,17.991-13.758-23.107-12.6Zm41.542,4.053v1.478a1.5,1.5,0,0,1-.146.643l7.8-4.432-1.814-.606Zm-74.6-19.862,28.592,15.755-4.535-6.351-7.92-2.263a1.5,1.5,0,0,1-.741-.482l-5.813-6.979-6.624-3.312h-2.958Zm12.987-.918,4.418,5.3,7.979,2.28a1.5,1.5,0,0,1,.81.569l4.6,6.444,9.827-18.668-15.4-1.027Zm82.267,9.251-4.187,2.093-1.476,2.953,10.613-6.036Zm-48.875-14.545,23.538,12.841,17.567,1.032-9.586-19.791-7.969,2.418a1.443,1.443,0,0,1-.571.059l-12.842-1.167Zm44.258,13.5,3.454-1.729a1.488,1.488,0,0,1,.377-.128l5.366-1.074,3.268-5.447a1.511,1.511,0,0,1,.615-.571l7.22-3.61a1.5,1.5,0,0,1,1.146-.081l2.915.973.98-.655-6.137-3.506-4.435-1.108h-2.221a.427.427,0,0,1-.057-.007l-.089,0-21.638-2.125Zm14.813-6.459-3.216,5.358,13.039-7.415a1.514,1.514,0,0,1-.529-.074l-3.021-1.007Zm-94.014-16.644-2.062,3.09a1.5,1.5,0,0,1-.884.625l-4.25,1.062-2.938,4.405h2.01a1.513,1.513,0,0,1,.672.158l6.6,3.3,13.8-5.752a1.494,1.494,0,0,1,.677-.113l12.343.823-21.016-8.594Zm14.2-9.522-6.435,6.434,24.386,9.978a1.458,1.458,0,0,1,.571.423l9.5-4.321-13.624-13.623Zm26.818,7.064,4.477,4.477,12.4,1.127,18.591-5.644-10.766-7.178-4.095-2.046Zm32.921,3.871,14.674,1.44-4.5-2.7h-3.2a1.5,1.5,0,0,1-.833-.253l-.359-.239Zm-42.643-13.593,7.451,7.454,20.318-9.133-4.187-4.187-4.41-1.1a.812.812,0,0,1-.11-.032l-2.729-.908-2.955,2.955a1.5,1.5,0,0,1-.7.394l-4.561,1.14-3.4,2.263a1.506,1.506,0,0,1-.83.251h-2.989Zm63.928,11.113a1.5,1.5,0,0,1-1.5-1.5v-35.541a1.5,1.5,0,0,1,1.5-1.5h34a1.5,1.5,0,0,1,1.5,1.5v35.541a1.5,1.5,0,0,1-1.5,1.5Zm1.5-3h31v-32.542h-31Zm4-6.745a1.5,1.5,0,0,1,0-3h22a1.5,1.5,0,1,1,0,3Zm0-10a1.5,1.5,0,0,1,0-3h22a1.5,1.5,0,1,1,0,3Zm0-8a1.5,1.5,0,0,1,0-3h22a1.5,1.5,0,1,1,0,3Zm-113-22a2.5,2.5,0,1,1,2.5,2.5A2.505,2.505,0,0,1,9661.056,5393.114Zm2,0a.5.5,0,1,0,.5-.5A.5.5,0,0,0,9663.058,5393.114Zm-11,0a2.5,2.5,0,1,1,2.5,2.5A2.5,2.5,0,0,1,9652.058,5393.114Zm2,0a.5.5,0,1,0,.5-.5A.5.5,0,0,0,9654.058,5393.114Zm-11,0a2.5,2.5,0,1,1,2.5,2.5A2.5,2.5,0,0,1,9643.058,5393.114Zm2,0a.5.5,0,1,0,.5-.5A.5.5,0,0,0,9645.057,5393.114Z" transform="translate(-9628.557 -5374.891)" stroke="rgba(0,0,0,0)" stroke-miterlimit="10" stroke-width="1" fill="url(#linear-gradient)"/>
</svg>
