<svg id="img_step2" xmlns="http://www.w3.org/2000/svg" xmlns:xlink="http://www.w3.org/1999/xlink" width="190" height="190" viewBox="0 0 190 190">
  <defs>
    <linearGradient id="linear-gradient" x1="0.5" x2="0.5" y2="1" gradientUnits="objectBoundingBox">
      <stop offset="0" stop-color="#009688" stop-opacity="0.851"/>
      <stop offset="1" stop-color="#103475"/>
    </linearGradient>
  </defs>
  <rect id="Rectangle_2008" data-name="Rectangle 2008" width="190" height="190" fill="#fff" opacity="0"/>
  <path id="Union_5" data-name="Union 5" d="M10009.41,5852.24l-5.518-.7a1.506,1.506,0,0,1-1.311-1.394l-.367-5.74a25.556,25.556,0,0,1-8.484-4.587l-5,2.729a1.5,1.5,0,0,1-1.9-.4l-3.408-4.4a1.5,1.5,0,0,1,.061-1.908l3.652-4.156a25.952,25.952,0,0,1-2.826-9.468l-5.251-1.546a1.5,1.5,0,0,1-1.064-1.627l.7-5.52a1.5,1.5,0,0,1,1.392-1.308l5.335-.345a25.948,25.948,0,0,1,4.83-8.807l-2.564-4.706a1.5,1.5,0,0,1,.4-1.9l4.4-3.406a1.492,1.492,0,0,1,1.908.058l3.981,3.5a25.952,25.952,0,0,1,9.665-2.748l1.523-5.177a1.507,1.507,0,0,1,1.63-1.064l5.52.7a1.5,1.5,0,0,1,1.308,1.394l.347,5.408a26.051,26.051,0,0,1,8.6,4.863l4.906-2.674a1.5,1.5,0,0,1,1.9.4l3.408,4.4a1.5,1.5,0,0,1-.061,1.911l-3.726,4.237a25.561,25.561,0,0,1,2.588,9.3l5.565,1.637a1.5,1.5,0,0,1,1.064,1.627l-.7,5.52a1.5,1.5,0,0,1-1.392,1.308l-5.816.375a25.613,25.613,0,0,1-4.619,8.277l2.838,5.206a1.5,1.5,0,0,1-.4,1.9l-4.4,3.406a1.5,1.5,0,0,1-1.909-.059l-4.412-3.88a25.535,25.535,0,0,1-9.1,2.666l-1.657,5.639a1.5,1.5,0,0,1-1.439,1.075A1.54,1.54,0,0,1,10009.41,5852.24Zm-14.5-15.353a22.627,22.627,0,0,0,9.128,4.932,1.5,1.5,0,0,1,1.1,1.351l.354,5.55,3.023.383,1.591-5.406a1.5,1.5,0,0,1,1.354-1.072,22.693,22.693,0,0,0,9.813-2.874,1.5,1.5,0,0,1,1.721.183l4.261,3.746,2.41-1.865-2.725-5a1.5,1.5,0,0,1,.205-1.726,22.67,22.67,0,0,0,4.985-8.923,1.5,1.5,0,0,1,1.343-1.077l5.606-.36.385-3.023-5.35-1.574a1.5,1.5,0,0,1-1.075-1.379,22.661,22.661,0,0,0-2.774-10,1.5,1.5,0,0,1,.189-1.711l3.586-4.077-1.867-2.408-4.711,2.567a1.5,1.5,0,0,1-1.741-.218,22.928,22.928,0,0,0-9.218-5.218,1.5,1.5,0,0,1-1.079-1.346l-.335-5.2-3.023-.383-1.459,4.965a1.507,1.507,0,0,1-1.384,1.075,22.926,22.926,0,0,0-10.338,2.932,1.5,1.5,0,0,1-1.726-.18l-3.832-3.368-2.41,1.865,2.456,4.5a1.5,1.5,0,0,1-.21,1.729,22.969,22.969,0,0,0-5.165,9.42,1.5,1.5,0,0,1-1.351,1.1l-5.145.332-.386,3.021,5.021,1.478a1.5,1.5,0,0,1,1.074,1.358,22.992,22.992,0,0,0,3.031,10.152,1.5,1.5,0,0,1-.172,1.738l-3.53,4.015,1.865,2.407,4.789-2.61a1.52,1.52,0,0,1,.72-.182A1.5,1.5,0,0,1,9994.914,5836.888Zm13.573-4.232a12.977,12.977,0,1,1,1.668.106A13.159,13.159,0,0,1,10008.487,5832.655Zm-4.511-20.882a10.06,10.06,0,1,0,6.141-2.1A10.057,10.057,0,0,0,10003.977,5811.773Zm44.988,11.741a1.5,1.5,0,1,1,0-3h11.511a26.522,26.522,0,0,0,.968-53.027,1.5,1.5,0,0,1-1.439-1.625c0-.073,0-.149,0-.223a17.459,17.459,0,0,0-17.44-17.438,17.253,17.253,0,0,0-10.548,3.553,1.5,1.5,0,0,1-2.309-.654,37.561,37.561,0,0,0-72.635,13.444q0,.7.025,1.4a1.5,1.5,0,0,1-1.576,1.554c-.335-.018-.677-.025-1.009-.025a26.521,26.521,0,0,0,0,53.042h21.6a1.5,1.5,0,1,1,0,3h-21.6a29.519,29.519,0,0,1-.44-59.036,40.561,40.561,0,0,1,77.713-16.207,20.237,20.237,0,0,1,10.778-3.066,20.465,20.465,0,0,1,20.413,19.372,29.521,29.521,0,0,1-2.506,58.937Zm-96.535-4.833-3.936-1.686a1.5,1.5,0,0,1-.877-1.7l.854-3.931a20.452,20.452,0,0,1-5.205-5.089l-3.888.875a1.5,1.5,0,0,1-1.721-.907l-1.592-3.977a1.5,1.5,0,0,1,.581-1.819l3.264-2.1a20.382,20.382,0,0,1-.041-7.4l-3.289-2.081a1.5,1.5,0,0,1-.575-1.857l1.686-3.938a1.508,1.508,0,0,1,1.7-.876l3.759.818a20.361,20.361,0,0,1,5.246-5.23l-.859-3.827a1.5,1.5,0,0,1,.907-1.721l3.977-1.591a1.5,1.5,0,0,1,1.819.583l2.131,3.314a20.345,20.345,0,0,1,7.276.056l2.177-3.439a1.506,1.506,0,0,1,1.857-.575l3.938,1.686a1.5,1.5,0,0,1,.874,1.7l-.874,4.022a20.43,20.43,0,0,1,4.985,5.051l4.128-.928a1.506,1.506,0,0,1,1.721.907l1.594,3.977a1.5,1.5,0,0,1-.58,1.819l-3.581,2.3a20.041,20.041,0,0,1-.015,6.967l3.659,2.316a1.5,1.5,0,0,1,.575,1.857l-1.683,3.938a1.5,1.5,0,0,1-1.7.876l-4.194-.912a19.982,19.982,0,0,1-4.894,4.959l.94,4.192a1.5,1.5,0,0,1-.9,1.721l-3.977,1.591a1.5,1.5,0,0,1-1.819-.58l-2.269-3.528a19.976,19.976,0,0,1-7.094.079l-2.225,3.512a1.5,1.5,0,0,1-1.268.7A1.519,1.519,0,0,1,9952.43,5818.682Zm-7.221-14.889a17.367,17.367,0,0,0,5.723,5.585,1.5,1.5,0,0,1,.694,1.6l-.813,3.743,1.624.694,2.089-3.3a1.5,1.5,0,0,1,1.594-.659,17.108,17.108,0,0,0,7.831-.094,1.5,1.5,0,0,1,1.617.646l2.161,3.361,1.64-.657-.887-3.946a1.5,1.5,0,0,1,.661-1.594,17.116,17.116,0,0,0,5.421-5.495,1.5,1.5,0,0,1,1.595-.676l3.991.867.694-1.625-3.454-2.187a1.5,1.5,0,0,1-.659-1.609,17.1,17.1,0,0,0,.018-7.717,1.5,1.5,0,0,1,.651-1.592l3.4-2.187-.656-1.642-3.9.877a1.489,1.489,0,0,1-1.609-.682,17.1,17.1,0,0,0-5.5-5.578,1.5,1.5,0,0,1-.664-1.586l.829-3.809-1.625-.694-2.055,3.244a1.5,1.5,0,0,1-1.628.651,17.34,17.34,0,0,0-7.992-.063,1.5,1.5,0,0,1-1.6-.651l-2.018-3.135-1.642.657.811,3.6a1.5,1.5,0,0,1-.687,1.609,17.307,17.307,0,0,0-5.745,5.725,1.5,1.5,0,0,1-1.6.682l-3.561-.773-.694,1.627,3.084,1.951a1.507,1.507,0,0,1,.659,1.614,17.263,17.263,0,0,0,.045,8.107,1.5,1.5,0,0,1-.646,1.625l-3.1,1.992.659,1.64,3.642-.819a1.526,1.526,0,0,1,.33-.037A1.494,1.494,0,0,1,9945.209,5803.793Zm10.565.307a10.385,10.385,0,1,1,4.073.838A10.4,10.4,0,0,1,9955.774,5804.1Zm1.341-16.412a7.346,7.346,0,1,0,2.747-.532A7.335,7.335,0,0,0,9957.115,5787.688ZM10095,5781a26.423,26.423,0,0,0-25.556-26.508,1.505,1.505,0,0,1-1.442-1.627,2.081,2.081,0,0,0,0-.221,17.457,17.457,0,0,0-17.438-17.438,17.255,17.255,0,0,0-10.547,3.553,1.5,1.5,0,0,1-1.82-2.385,20.228,20.228,0,0,1,12.367-4.169,20.463,20.463,0,0,1,20.411,19.372A29.409,29.409,0,0,1,10098,5781a1.5,1.5,0,1,1-3,0Zm-105.723-.111a1.5,1.5,0,0,1-1.472-1.217l-.408-2.108a13.393,13.393,0,0,1-3.743-1.452l-1.729,1.247a1.5,1.5,0,0,1-1.937-.155l-1.9-1.9a1.5,1.5,0,0,1-.18-1.9l1.152-1.706a13.4,13.4,0,0,1-1.632-3.756l-2.042-.332a1.5,1.5,0,0,1-1.26-1.48v-2.684a1.5,1.5,0,0,1,1.214-1.473l2.007-.388a13.31,13.31,0,0,1,1.528-3.8l-1.219-1.69a1.5,1.5,0,0,1,.154-1.938l1.9-1.9a1.5,1.5,0,0,1,1.9-.182l1.744,1.178a13.4,13.4,0,0,1,3.7-1.554l.347-2.146a1.5,1.5,0,0,1,1.48-1.262h2.684a1.5,1.5,0,0,1,1.473,1.216l.421,2.177a13.486,13.486,0,0,1,3.611,1.473l1.848-1.335a1.5,1.5,0,0,1,1.938.157l1.9,1.9a1.5,1.5,0,0,1,.182,1.9l-1.29,1.906a13.178,13.178,0,0,1,1.5,3.513l2.312.373a1.5,1.5,0,0,1,1.262,1.482v2.684a1.5,1.5,0,0,1-1.216,1.472l-2.278.438a13.1,13.1,0,0,1-1.4,3.558l1.36,1.883a1.5,1.5,0,0,1-.154,1.939l-1.9,1.9a1.494,1.494,0,0,1-1.9.18l-1.87-1.262a13.15,13.15,0,0,1-3.566,1.574l-.356,2.21a1.5,1.5,0,0,1-1.48,1.262Zm-4.83-7.821a10.308,10.308,0,0,0,4.433,1.716,1.5,1.5,0,0,1,1.27,1.2l.367,1.9h.17l.314-1.947a1.5,1.5,0,0,1,1.2-1.234,10.173,10.173,0,0,0,4.258-1.883,1.5,1.5,0,0,1,1.741-.041l1.689,1.145.119-.119-1.2-1.67a1.5,1.5,0,0,1-.021-1.728,10.141,10.141,0,0,0,1.675-4.268,1.5,1.5,0,0,1,1.2-1.249l2.061-.4v-.167l-2.061-.334a1.5,1.5,0,0,1-1.237-1.216,10.143,10.143,0,0,0-1.794-4.22,1.5,1.5,0,0,1-.027-1.723l1.16-1.713-.119-.119-1.647,1.188a1.5,1.5,0,0,1-1.746.005,10.162,10.162,0,0,0-4.308-1.761,1.5,1.5,0,0,1-1.234-1.2l-.375-1.946h-.17l-.31,1.906a1.5,1.5,0,0,1-1.236,1.242,10.128,10.128,0,0,0-4.382,1.835,1.505,1.505,0,0,1-1.726.03l-1.554-1.052-.119.119,1.074,1.488a1.5,1.5,0,0,1,.006,1.751,10.267,10.267,0,0,0-1.8,4.471,1.506,1.506,0,0,1-1.2,1.257l-1.789.345v.169l1.792.289a1.494,1.494,0,0,1,1.236,1.222,10.293,10.293,0,0,0,1.924,4.419,1.506,1.506,0,0,1,.043,1.747l-1.034,1.53.119.119,1.513-1.092a1.5,1.5,0,0,1,1.729-.02Zm-1.227-8.477a7.072,7.072,0,1,1,7.07,7.07A7.08,7.08,0,0,1,9983.221,5764.59Zm3,0a4.071,4.071,0,1,0,4.069-4.07A4.077,4.077,0,0,0,9986.222,5764.59Z" transform="translate(-9916.5 -5692.986)" stroke="rgba(0,0,0,0)" stroke-miterlimit="10" stroke-width="1" fill="url(#linear-gradient)"/>
</svg>
