<?xml version="1.0" encoding="UTF-8" standalone="no"?>
<!-- Created with Inkscape (http://www.inkscape.org/) -->

<svg
   width="578.414"
   height="183.2063"
   viewBox="0 0 153.0387 48.473334"
   version="1.1"
   id="svg8"
   xmlns="http://www.w3.org/2000/svg"
   xmlns:svg="http://www.w3.org/2000/svg"
   xmlns:rdf="http://www.w3.org/1999/02/22-rdf-syntax-ns#"
   xmlns:cc="http://creativecommons.org/ns#"
   xmlns:dc="http://purl.org/dc/elements/1.1/">
  <defs
     id="defs2" />
  <metadata
     id="metadata5">
    <rdf:RDF>
      <cc:Work
         rdf:about="">
        <dc:format>image/svg+xml</dc:format>
        <dc:type
           rdf:resource="http://purl.org/dc/dcmitype/StillImage" />
      </cc:Work>
    </rdf:RDF>
  </metadata>
  <g
     id="layer1"
     transform="translate(-0.80825108,-247.36333)">
    <g
       id="g884"
       transform="matrix(3.6134082,0,0,3.6134082,-528.36107,-270.03682)"
       style="fill:#040404;stroke:none;fill-opacity:1">
      <path
         style="fill:#040404;stroke-width:0.03907692;stroke:none;fill-opacity:1"
         d="m 149.45013,155.81635 c -1.22168,-0.26866 -2.08469,-1.21457 -2.25155,-2.46783 -0.0775,-0.5821 0.069,-1.23916 0.40108,-1.79911 0.19169,-0.3232 0.66792,-0.78268 1.01193,-0.97635 0.65797,-0.3704 1.46414,-0.46813 2.17256,-0.26335 0.35457,0.10249 0.73792,0.29239 0.94928,0.47024 l 0.11886,0.10001 0.4754,-0.47559 0.47539,-0.47558 -0.48709,-0.4871 -0.48709,-0.48709 -0.21246,0.14445 c -0.85147,0.57891 -1.94258,0.64987 -2.87517,0.18699 -1.08958,-0.5408 -1.7283,-1.78469 -1.52367,-2.96731 0.13589,-0.78534 0.54986,-1.44002 1.20515,-1.90592 0.77828,-0.55334 1.89718,-0.64251 2.78584,-0.22203 0.8755,0.41426 1.44563,1.17479 1.61,2.14769 0.10031,0.59377 -0.0135,1.22161 -0.32649,1.80109 l -0.14279,0.26437 0.49195,0.49338 0.49195,0.49338 0.45429,-0.44844 0.4543,-0.44844 -0.15848,-0.26276 c -0.21068,-0.34931 -0.30475,-0.61177 -0.38097,-1.06296 -0.16081,-0.9518 0.21168,-1.91777 1.00124,-2.59652 0.25108,-0.21585 0.73853,-0.46864 1.077,-0.55853 1.35857,-0.36084 2.81715,0.37073 3.35047,1.68046 0.63543,1.56047 -0.22739,3.31882 -1.86015,3.79078 -0.44493,0.12861 -0.9993,0.13753 -1.44606,0.0233 -0.3433,-0.0878 -0.49835,-0.15355 -0.8185,-0.34709 l -0.22717,-0.13733 -0.45323,0.45323 -0.45322,0.45322 0.43342,0.4325 0.43342,0.4325 0.28605,-0.17652 c 0.43939,-0.27114 0.81495,-0.37916 1.38893,-0.3995 0.42933,-0.0152 0.51432,-0.006 0.84015,0.0866 0.4958,0.14153 0.88138,0.36777 1.24013,0.72766 0.46727,0.46874 0.69541,0.91574 0.80824,1.58357 0.0551,0.32628 0.0579,0.43681 0.0186,0.73218 -0.13372,1.00436 -0.70005,1.80111 -1.58724,2.23303 -1.27795,0.62217 -2.77685,0.21457 -3.58835,-0.97579 -0.63541,-0.93205 -0.63486,-2.16133 10e-4,-3.15577 l 0.069,-0.10778 -0.4389,-0.4389 -0.4389,-0.4389 -0.48438,0.48321 -0.48437,0.48321 0.15201,0.28183 c 0.38065,0.70569 0.43272,1.59954 0.13713,2.35381 -0.1803,0.46005 -0.56877,0.9589 -1.00107,1.28549 -0.22854,0.17265 -0.74431,0.39522 -1.06903,0.46131 -0.36226,0.0737 -0.81202,0.075 -1.13882,0.003 z m 1.05508,-0.76686 c 0.90034,-0.19508 1.58359,-1.06431 1.58215,-2.01282 -8.9e-4,-0.58932 -0.18591,-1.02247 -0.62379,-1.46035 -0.3253,-0.3253 -0.57273,-0.46572 -0.99188,-0.56293 -0.717,-0.16628 -1.43801,0.0552 -1.9493,0.59879 -0.39185,0.41661 -0.57542,0.87037 -0.57626,1.42449 -0.001,0.87751 0.56977,1.68458 1.38571,1.95828 0.40332,0.13529 0.73052,0.1505 1.17337,0.0545 z m 6.48677,0 c 0.90096,-0.19522 1.58353,-1.05893 1.58215,-2.00202 -8.8e-4,-0.60062 -0.18316,-1.03052 -0.62379,-1.47115 -0.32153,-0.32152 -0.57891,-0.46916 -0.98474,-0.56483 -1.07449,-0.25331 -2.18896,0.43116 -2.48014,1.52319 -0.1682,0.63084 0.0316,1.40131 0.49476,1.90811 0.50942,0.55738 1.2327,0.77551 2.01176,0.6067 z m -6.5185,-6.26926 c 0.40087,-0.0929 0.75331,-0.29615 1.03763,-0.59843 0.39185,-0.4166 0.57541,-0.87037 0.57625,-1.42449 8.6e-4,-0.56484 -0.21072,-1.06703 -0.62025,-1.47222 -0.41031,-0.40596 -0.90475,-0.60383 -1.49445,-0.59809 -1.11429,0.0109 -2.02816,0.93961 -2.02653,2.05952 8.3e-4,0.56477 0.18171,1.01581 0.57512,1.43407 0.50982,0.54204 1.23696,0.76538 1.95223,0.59964 z m 6.48677,0 c 0.40087,-0.0929 0.75331,-0.29615 1.03763,-0.59843 0.39456,-0.41948 0.57542,-0.86997 0.57625,-1.43528 0.001,-0.90676 -0.57555,-1.68524 -1.45991,-1.97011 -1.30794,-0.42132 -2.68341,0.59486 -2.68132,1.9809 8.4e-4,0.55358 0.18442,1.0079 0.57512,1.42328 0.50982,0.54204 1.23696,0.76538 1.95223,0.59964 z"
         id="path898" />
      <path
         style="fill:#040404;stroke-width:0.03907692;stroke:none;fill-opacity:1"
         d="m 149.68459,155.85131 c -0.42355,-0.0834 -0.53871,-0.11429 -0.74044,-0.19857 -1.20268,-0.50245 -1.91532,-1.74495 -1.72468,-3.00703 0.0571,-0.37823 0.18548,-0.75996 0.34608,-1.02933 0.62391,-1.04647 1.81305,-1.57989 3.01104,-1.35068 0.37411,0.0716 0.6367,0.18185 1.00153,0.42058 l 0.29136,0.19065 0.47044,-0.47043 0.47044,-0.47044 -0.49348,-0.49347 -0.49347,-0.49348 -0.17898,0.12315 c -1.03554,0.71246 -2.35926,0.67814 -3.37118,-0.0874 -0.55986,-0.42355 -0.94171,-1.08931 -1.05429,-1.8382 -0.0568,-0.37745 -0.0522,-0.52451 0.0297,-0.96198 0.16377,-0.87441 0.82106,-1.67173 1.67918,-2.03689 1.08599,-0.46213 2.33217,-0.18955 3.15334,0.68975 0.57123,0.61167 0.84194,1.43027 0.74248,2.24519 -0.0464,0.38007 -0.19828,0.82928 -0.37682,1.11442 l -0.12234,0.19538 0.50665,0.50759 0.50665,0.50759 0.44961,-0.44834 c 0.24729,-0.24658 0.44962,-0.46147 0.44962,-0.47752 0,-0.0161 -0.0637,-0.12875 -0.14153,-0.25043 -0.40939,-0.63997 -0.52586,-1.51345 -0.3042,-2.2812 0.28083,-0.97263 1.14716,-1.75784 2.17331,-1.9698 1.8418,-0.38043 3.59332,1.24057 3.3486,3.09907 -0.1626,1.23481 -1.07068,2.22317 -2.24988,2.44879 -0.76724,0.1468 -1.48013,0.002 -2.17208,-0.44051 l -0.10778,-0.069 -0.45863,0.45863 -0.45862,0.45862 0.43607,0.43607 0.43606,0.43606 0.18895,-0.12108 c 0.66035,-0.42313 1.38245,-0.56559 2.13603,-0.42141 0.94771,0.18133 1.75744,0.87891 2.09325,1.80334 0.375,1.03231 0.14676,2.11554 -0.61548,2.92107 -0.93391,0.98694 -2.40616,1.15591 -3.58494,0.41144 -0.50526,-0.3191 -0.99714,-0.9769 -1.16486,-1.55779 -0.22079,-0.76473 -0.10507,-1.64141 0.30033,-2.27515 l 0.13767,-0.21521 -0.44575,-0.44448 -0.44574,-0.44448 -0.49225,0.49224 -0.49224,0.49225 0.1075,0.17029 c 0.37402,0.59249 0.48159,1.48506 0.26808,2.22454 -0.2237,0.7748 -0.86797,1.48493 -1.64323,1.81124 -0.39301,0.16542 -1.07368,0.26078 -1.40111,0.19631 z m 0.98437,-0.83943 c 0.64927,-0.21147 1.18562,-0.78527 1.36584,-1.4612 0.0706,-0.26475 0.0664,-0.75736 -0.009,-1.04943 -0.16687,-0.64722 -0.63567,-1.16179 -1.29561,-1.42213 -0.23206,-0.0915 -0.31881,-0.10421 -0.71356,-0.10421 -0.39653,0 -0.481,0.0125 -0.71814,0.10593 -0.84115,0.33156 -1.35294,1.06315 -1.35294,1.93399 0,0.57855 0.16682,1.01852 0.53839,1.41997 0.57069,0.61658 1.3951,0.83433 2.1849,0.57708 z m 6.48677,0 c 0.47796,-0.15567 0.96604,-0.56757 1.19462,-1.00814 0.29355,-0.5658 0.30139,-1.3314 0.0195,-1.8989 -0.22195,-0.44673 -0.64827,-0.82696 -1.14815,-1.024 -0.23714,-0.0935 -0.32161,-0.10593 -0.71813,-0.10593 -0.39475,0 -0.48151,0.0127 -0.71356,0.10421 -0.84895,0.33489 -1.35831,1.06683 -1.35706,1.95004 7.9e-4,0.55366 0.17751,1.01534 0.53793,1.40531 0.56999,0.61674 1.39487,0.83473 2.1849,0.57741 z m -6.41606,-6.30294 c 0.82834,-0.31294 1.34904,-1.07149 1.34769,-1.96328 -8e-4,-0.52704 -0.1803,-0.99575 -0.52707,-1.3763 -0.41666,-0.45722 -0.92802,-0.68374 -1.54354,-0.68374 -1.17526,0 -2.07108,0.90272 -2.07108,2.08705 0,0.9658 0.6057,1.73643 1.58262,2.01357 0.30559,0.0867 0.87317,0.0505 1.21138,-0.0773 z m 6.47741,0.003 c 0.83948,-0.32119 1.35751,-1.06199 1.35751,-1.94126 0,-0.60934 -0.17521,-1.0352 -0.60449,-1.46927 -0.43054,-0.43534 -0.85982,-0.61552 -1.46658,-0.61556 -0.61549,-4e-5 -1.12686,0.22648 -1.54354,0.68372 -0.34678,0.38055 -0.52628,0.84926 -0.52708,1.3763 -10e-4,0.98804 0.59816,1.76144 1.58216,2.04058 0.30392,0.0862 0.87433,0.0509 1.20202,-0.0745 z"
         id="path896" />
      <path
         style="fill:#040404;stroke-width:0.03907692;stroke:none;fill-opacity:1"
         d="m 149.60644,155.83278 c -0.59513,-0.0849 -1.14515,-0.3709 -1.60683,-0.83545 -0.25623,-0.25784 -0.35227,-0.39013 -0.49912,-0.68757 -0.23986,-0.4858 -0.30922,-0.82452 -0.28749,-1.40384 0.0134,-0.3566 0.0389,-0.51386 0.12364,-0.76163 0.30434,-0.8899 0.97891,-1.53765 1.89857,-1.82308 0.42079,-0.13059 1.1433,-0.1305 1.56209,2e-4 0.34609,0.10801 0.61428,0.2379 0.87605,0.42428 l 0.19123,0.13614 0.47289,-0.47289 0.47289,-0.47289 -0.49348,-0.49347 -0.49347,-0.49347 -0.17064,0.11699 c -0.25349,0.17379 -0.52823,0.30433 -0.85547,0.40646 -0.41879,0.13071 -1.1413,0.1308 -1.56209,2e-4 -0.91966,-0.28543 -1.59423,-0.93318 -1.89857,-1.82308 -0.13784,-0.40305 -0.17237,-1.0585 -0.0793,-1.50409 0.1902,-0.91006 0.90837,-1.71949 1.81618,-2.04696 1.48104,-0.53423 3.12151,0.27526 3.6335,1.79296 0.1368,0.40553 0.16137,1.10206 0.0539,1.52719 -0.0782,0.30933 -0.19549,0.58953 -0.3542,0.84633 l -0.0814,0.13162 0.50642,0.50529 0.50641,0.50529 0.44942,-0.44814 c 0.24719,-0.24647 0.44943,-0.46059 0.44943,-0.47582 0,-0.0152 -0.0692,-0.13861 -0.15386,-0.27418 -0.0846,-0.13557 -0.20305,-0.38716 -0.26318,-0.5591 -0.10029,-0.28677 -0.10934,-0.35945 -0.10943,-0.87923 -1.2e-4,-0.65526 0.0604,-0.90797 0.33699,-1.40677 0.19744,-0.35609 0.65523,-0.82695 0.9977,-1.02621 0.55504,-0.32293 1.20248,-0.46101 1.79309,-0.38241 0.67331,0.0896 1.19415,0.35004 1.68228,0.84121 0.25624,0.25783 0.35227,0.39012 0.49913,0.68757 0.23985,0.4858 0.30922,0.82452 0.28748,1.40384 -0.0134,0.3566 -0.0389,0.51385 -0.12364,0.76162 -0.30433,0.8899 -0.97891,1.53766 -1.89856,1.82308 -0.42079,0.1306 -1.14331,0.13051 -1.5621,-1.9e-4 -0.32495,-0.10142 -0.62304,-0.24138 -0.8055,-0.37819 l -0.12067,-0.0905 -0.46507,0.46628 -0.46507,0.46628 0.43658,0.43658 0.43658,0.43658 0.15111,-0.1 c 0.24602,-0.16281 0.52114,-0.29117 0.83204,-0.38821 0.41879,-0.1307 1.14131,-0.1308 1.5621,-1.9e-4 0.91965,0.28542 1.59423,0.93318 1.89856,1.82308 0.0847,0.24777 0.11027,0.40502 0.12364,0.76162 0.022,0.58608 -0.0471,0.91999 -0.29095,1.40677 -0.31829,0.6353 -0.88728,1.13652 -1.56962,1.38265 -0.78071,0.28162 -1.65611,0.19442 -2.40141,-0.23921 -0.34247,-0.19926 -0.80026,-0.67012 -0.9977,-1.02621 -0.27657,-0.4988 -0.33711,-0.75151 -0.33699,-1.40677 8e-5,-0.51978 0.009,-0.59245 0.10943,-0.87923 0.0601,-0.17194 0.17658,-0.42038 0.25879,-0.55209 l 0.14946,-0.23948 -0.44522,-0.44396 -0.44521,-0.44395 -0.49166,0.49167 -0.49167,0.49166 0.11781,0.19177 c 0.0648,0.10547 0.16718,0.33244 0.22753,0.50438 0.1008,0.2872 0.10973,0.35869 0.10982,0.87923 8e-5,0.4789 -0.0134,0.60897 -0.0872,0.84016 -0.13915,0.43604 -0.37806,0.8255 -0.70909,1.15597 -0.46104,0.46024 -0.99217,0.72686 -1.62265,0.81455 -0.33843,0.0471 -0.44808,0.0469 -0.7843,-0.001 z m 1.00035,-0.79401 c 0.64303,-0.19498 1.20897,-0.75224 1.40346,-1.38192 0.0975,-0.31575 0.10477,-0.87863 0.0152,-1.18346 -0.20842,-0.70957 -0.77351,-1.2651 -1.47395,-1.44899 -1.0995,-0.28866 -2.22074,0.35009 -2.54352,1.44899 -0.0895,0.30483 -0.0823,0.86771 0.0152,1.18346 0.19859,0.64295 0.80934,1.23038 1.44642,1.39115 0.0967,0.0244 0.21981,0.0523 0.27354,0.0619 0.16177,0.029 0.67177,-0.013 0.86358,-0.0711 z m 6.48677,0 c 0.64303,-0.19498 1.20897,-0.75224 1.40346,-1.38192 0.0975,-0.31575 0.10477,-0.87863 0.0152,-1.18346 -0.20937,-0.71281 -0.77032,-1.26426 -1.47395,-1.44899 -1.09831,-0.28835 -2.22109,0.35128 -2.54352,1.44899 -0.0895,0.30483 -0.0823,0.86771 0.0152,1.18346 0.19859,0.64295 0.80934,1.23038 1.44642,1.39115 0.0967,0.0244 0.21981,0.0523 0.27354,0.0619 0.16177,0.029 0.67177,-0.013 0.86358,-0.0711 z m -6.54203,-6.26918 c 0.70044,-0.1839 1.26553,-0.73942 1.47395,-1.449 0.0895,-0.30483 0.0823,-0.8677 -0.0152,-1.18345 -0.20057,-0.64935 -0.79049,-1.21319 -1.46596,-1.40115 -0.25105,-0.0699 -0.80404,-0.0699 -1.05508,0 -0.67548,0.18796 -1.2654,0.7518 -1.46596,1.40115 -0.0975,0.31575 -0.10477,0.87862 -0.0152,1.18345 0.20908,0.71181 0.78406,1.27103 1.50074,1.45963 0.30001,0.0789 0.71781,0.0747 1.04278,-0.0106 z m 6.48677,0 c 0.70363,-0.18474 1.26458,-0.73618 1.47395,-1.449 0.0895,-0.30483 0.0823,-0.8677 -0.0152,-1.18345 -0.20057,-0.64935 -0.79049,-1.21319 -1.46596,-1.40115 -0.25105,-0.0699 -0.80404,-0.0699 -1.05508,0 -0.67548,0.18796 -1.2654,0.7518 -1.46596,1.40115 -0.0975,0.31575 -0.10477,0.87862 -0.0152,1.18345 0.20908,0.71181 0.78406,1.27103 1.50074,1.45963 0.30001,0.0789 0.71781,0.0747 1.04278,-0.0106 z"
         id="path894" />
      <path
         style="fill:#040404;stroke-width:0.03907692;stroke:none;fill-opacity:1"
         d="m 149.64215,155.83397 c -0.5837,-0.0696 -1.17459,-0.3677 -1.61827,-0.81648 -0.33567,-0.33953 -0.51081,-0.61556 -0.67861,-1.06957 -0.11063,-0.29932 -0.11804,-0.35417 -0.11969,-0.8857 -0.002,-0.64737 0.0396,-0.83303 0.30222,-1.34815 0.19992,-0.39217 0.70282,-0.9147 1.08218,-1.12441 0.96455,-0.53321 2.08908,-0.49113 2.9881,0.11181 l 0.26701,0.17907 0.46306,-0.46186 c 0.25468,-0.25402 0.46306,-0.47697 0.46306,-0.49544 0,-0.0185 -0.21603,-0.24806 -0.48006,-0.51018 l -0.48006,-0.47659 -0.25022,0.16764 c -0.88197,0.5909 -2.01418,0.62909 -2.97089,0.10022 -0.37936,-0.20971 -0.88226,-0.73224 -1.08218,-1.12441 -0.2626,-0.51512 -0.30422,-0.70078 -0.30222,-1.34816 0.002,-0.53153 0.009,-0.58637 0.11969,-0.8857 0.17127,-0.46337 0.3452,-0.73418 0.69884,-1.08804 0.25169,-0.25185 0.38627,-0.35002 0.68384,-0.49882 0.48509,-0.24257 0.77754,-0.31377 1.2888,-0.31377 0.50575,0 0.79847,0.0703 1.28283,0.30821 0.29663,0.14568 0.42399,0.23852 0.68384,0.49848 0.35941,0.35955 0.5329,0.62884 0.70481,1.09394 0.11063,0.29933 0.11804,0.35417 0.11968,0.8857 0.002,0.65419 -0.0414,0.8446 -0.309,1.35344 l -0.16716,0.3179 0.50345,0.50233 0.50344,0.50233 0.45845,-0.45845 0.45845,-0.45845 -0.069,-0.10778 c -0.14237,-0.22241 -0.33261,-0.62372 -0.40304,-0.85024 -0.0575,-0.18492 -0.0725,-0.35419 -0.0712,-0.80108 0.002,-0.53153 0.009,-0.58637 0.11969,-0.8857 0.17127,-0.46337 0.3452,-0.73418 0.69884,-1.08804 0.25169,-0.25185 0.38627,-0.35002 0.68384,-0.49882 0.48509,-0.24257 0.77754,-0.31377 1.2888,-0.31377 0.50575,0 0.79847,0.0703 1.28283,0.30821 0.29663,0.14568 0.42399,0.23852 0.68384,0.49848 0.3594,0.35955 0.5329,0.62884 0.7048,1.09394 0.11064,0.29933 0.11805,0.35417 0.11969,0.8857 0.002,0.64738 -0.0396,0.83304 -0.30221,1.34816 -0.19992,0.39217 -0.70283,0.9147 -1.08218,1.12441 -0.93696,0.51795 -2.07687,0.49037 -2.92788,-0.0708 l -0.21202,-0.13983 -0.44251,0.44126 c -0.24339,0.24269 -0.44252,0.45943 -0.44252,0.48164 0,0.0222 0.19356,0.23334 0.43014,0.46918 0.37518,0.37402 0.43883,0.42271 0.49823,0.38117 0.21438,-0.14994 0.57626,-0.33121 0.84963,-0.4256 0.28191,-0.0973 0.36443,-0.10785 0.84016,-0.10714 0.45919,6.8e-4 0.56635,0.0137 0.82712,0.10016 0.4762,0.15795 0.79669,0.35864 1.16806,0.73143 0.25095,0.25192 0.37417,0.41371 0.49377,0.64831 0.26259,0.51512 0.30421,0.70078 0.30221,1.34815 -0.002,0.53153 -0.009,0.58638 -0.11969,0.8857 -0.1719,0.46511 -0.3454,0.73439 -0.7048,1.09394 -0.25985,0.25997 -0.38721,0.3528 -0.68384,0.49849 -0.48091,0.23618 -0.77552,0.30659 -1.28283,0.30659 -0.46313,0 -0.78493,-0.0679 -1.16815,-0.24661 -0.71558,-0.33362 -1.22139,-0.8896 -1.50333,-1.65241 -0.11063,-0.29932 -0.11804,-0.35417 -0.11969,-0.8857 -0.001,-0.44678 0.0137,-0.6162 0.0711,-0.80107 0.078,-0.25091 0.25988,-0.6364 0.38174,-0.80904 l 0.0746,-0.10565 -0.45323,-0.4583 -0.45323,-0.4583 -0.49246,0.49246 -0.49246,0.49246 0.1488,0.28316 c 0.22471,0.42764 0.29675,0.69865 0.32136,1.20896 0.0182,0.37856 0.008,0.50318 -0.0613,0.78154 -0.2116,0.84468 -0.73561,1.49615 -1.50966,1.87686 -0.50357,0.24767 -1.03524,0.33664 -1.60552,0.26867 z m 0.8145,-0.75798 c 0.73104,-0.15492 1.35762,-0.7395 1.56919,-1.46401 0.0942,-0.32269 0.0813,-0.89752 -0.0274,-1.21632 -0.18383,-0.53923 -0.52275,-0.94906 -0.99145,-1.19888 -1.05397,-0.56175 -2.36888,-0.13217 -2.86293,0.93533 -0.17525,0.37867 -0.204,0.51299 -0.20203,0.94402 0.003,0.76165 0.41858,1.44354 1.09519,1.79909 0.46152,0.24252 0.91782,0.30706 1.41943,0.20077 z m 6.48677,0 c 0.73638,-0.15605 1.35316,-0.73227 1.56992,-1.46669 0.0654,-0.2217 0.0862,-0.73702 0.0403,-1.00209 -0.0523,-0.30214 -0.32729,-0.79944 -0.5805,-1.04973 -1.12099,-1.10812 -2.99784,-0.63464 -3.46394,0.87386 -0.0967,0.31287 -0.10354,0.8771 -0.0144,1.18064 0.15875,0.54046 0.53682,1.0045 1.02921,1.26324 0.46151,0.24252 0.91782,0.30706 1.41943,0.20077 z m -6.40076,-6.29391 c 0.68839,-0.1793 1.25426,-0.72629 1.46843,-1.41943 0.0967,-0.31287 0.10355,-0.87711 0.0144,-1.18064 -0.29385,-1.00042 -1.29262,-1.64395 -2.31158,-1.4894 -1.01737,0.1543 -1.76723,1.0114 -1.77187,2.02524 -0.002,0.43836 0.0267,0.56914 0.20858,0.95117 0.25992,0.54587 0.74926,0.95671 1.32345,1.11113 0.27946,0.0752 0.78396,0.0761 1.0686,0.002 z m 6.48677,0 c 0.58446,-0.15223 1.07864,-0.56245 1.34017,-1.11247 0.18198,-0.38273 0.21064,-0.51346 0.20863,-0.95176 -0.005,-1.01384 -0.7545,-1.87094 -1.77187,-2.02524 -1.01895,-0.15455 -2.01773,0.48898 -2.31158,1.4894 -0.0891,0.30353 -0.0823,0.86777 0.0144,1.18064 0.21145,0.68434 0.77627,1.23587 1.45166,1.4175 0.27946,0.0752 0.78396,0.0761 1.0686,0.002 z"
         id="path892" />
      <path
         style="fill:#040404;stroke-width:0.03907692;stroke:none;fill-opacity:1"
         d="m 149.34495,155.77624 c -0.50744,-0.12306 -1.07892,-0.46568 -1.42483,-0.85425 -0.26015,-0.29222 -0.43042,-0.58578 -0.57416,-0.98987 -0.11542,-0.32446 -0.12171,-0.37198 -0.12025,-0.90897 0.001,-0.50753 0.012,-0.59592 0.10208,-0.84758 0.16691,-0.46648 0.36975,-0.78715 0.71214,-1.12581 0.35157,-0.34775 0.62728,-0.5264 1.02681,-0.66534 0.87663,-0.30487 1.78834,-0.18551 2.55382,0.33432 l 0.24199,0.16433 0.46433,-0.46312 c 0.25538,-0.25472 0.46433,-0.48073 0.46433,-0.50224 0,-0.0215 -0.21387,-0.25351 -0.47526,-0.51553 l -0.47527,-0.47641 -0.23105,0.1569 c -0.75393,0.51199 -1.67148,0.62994 -2.54289,0.3269 -0.39953,-0.13895 -0.67524,-0.31759 -1.02681,-0.66535 -0.34239,-0.33866 -0.54523,-0.65932 -0.71214,-1.1258 -0.09,-0.25166 -0.1007,-0.34006 -0.10208,-0.84758 -0.001,-0.53699 0.005,-0.58452 0.12025,-0.90898 0.27694,-0.77854 0.7871,-1.34152 1.51455,-1.67136 0.3711,-0.16827 0.68888,-0.23204 1.15624,-0.23204 0.46735,0 0.78514,0.0638 1.15624,0.23204 0.96982,0.43974 1.59377,1.35021 1.64756,2.40414 0.0279,0.54727 -0.0551,0.94538 -0.2987,1.43269 l -0.18861,0.37726 0.5027,0.50158 0.5027,0.50159 0.45757,-0.45757 0.45758,-0.45757 -0.0892,-0.14774 c -0.35491,-0.58776 -0.49691,-1.12241 -0.46487,-1.75024 0.0538,-1.05393 0.67774,-1.9644 1.64757,-2.40414 0.3711,-0.16827 0.68888,-0.23204 1.15624,-0.23204 0.46735,0 0.78514,0.0638 1.15624,0.23204 0.7273,0.32977 1.23716,0.89235 1.51477,1.67136 0.11598,0.32549 0.12187,0.3703 0.1194,0.90898 -0.002,0.50402 -0.0136,0.59765 -0.10229,0.84758 -0.16483,0.46453 -0.36823,0.78647 -0.7113,1.1258 -0.35158,0.34776 -0.62728,0.5264 -1.02682,0.66535 -0.84832,0.29502 -1.80173,0.18186 -2.49675,-0.29632 l -0.18128,-0.12473 -0.4648,0.4636 -0.46481,0.46359 0.44949,0.44949 c 0.43109,0.43109 0.45309,0.44719 0.53751,0.39335 0.70974,-0.45261 1.31795,-0.61036 2.00093,-0.51897 0.68057,0.0911 1.15601,0.325 1.64653,0.81018 0.34307,0.33934 0.54647,0.66127 0.7113,1.12581 0.0887,0.24992 0.1,0.34355 0.10229,0.84758 0.002,0.53868 -0.003,0.58349 -0.1194,0.90897 -0.27761,0.77902 -0.78747,1.3416 -1.51477,1.67137 -0.3711,0.16827 -0.68889,0.23204 -1.15624,0.23204 -0.46736,0 -0.78514,-0.0638 -1.15624,-0.23204 -0.72753,-0.32988 -1.23786,-0.89309 -1.51444,-1.67137 -0.11401,-0.32081 -0.12168,-0.3768 -0.12189,-0.88944 -2.8e-4,-0.63815 0.0682,-0.90964 0.35726,-1.4169 l 0.17094,-0.29996 -0.45044,-0.45045 -0.45044,-0.45044 -0.4941,0.4941 -0.49409,0.49409 0.17969,0.3654 c 0.71401,1.45187 0.10778,3.1609 -1.35678,3.82497 -0.14193,0.0644 -0.36783,0.14289 -0.502,0.17452 -0.3051,0.0719 -1.02605,0.071 -1.32604,-0.002 z m 1.29703,-0.73813 c 0.5511,-0.19324 1.00013,-0.57589 1.24241,-1.05876 0.33066,-0.65896 0.28079,-1.48945 -0.12625,-2.10268 -0.79918,-1.20401 -2.58014,-1.23796 -3.44073,-0.0656 -0.90054,1.22678 -0.17484,3.00264 1.34765,3.29782 0.18384,0.0356 0.8009,-0.009 0.97692,-0.0708 z m 6.53372,-0.0167 c 0.53858,-0.18843 0.95573,-0.56149 1.20166,-1.07463 0.67427,-1.40692 -0.31923,-2.99468 -1.87384,-2.99468 -1.27827,0 -2.24348,1.10688 -2.06764,2.37111 0.12379,0.89003 0.81722,1.61166 1.71594,1.78573 0.20791,0.0403 0.80433,-0.0107 1.02388,-0.0875 z m -6.63304,-6.2393 c 0.81719,-0.21285 1.43901,-0.91829 1.54478,-1.75253 0.12734,-1.00441 -0.47133,-1.94693 -1.44546,-2.27565 -0.29814,-0.10061 -0.95232,-0.10061 -1.25046,0 -1.17388,0.39612 -1.77045,1.67056 -1.31113,2.80094 0.23795,0.58561 0.77688,1.05944 1.39367,1.22531 0.27946,0.0752 0.78396,0.0761 1.0686,0.002 z m 6.48677,0 c 0.47903,-0.12477 0.94086,-0.45104 1.2079,-0.85335 0.7755,-1.16834 0.23295,-2.72213 -1.10858,-3.17483 -0.32386,-0.10929 -0.95263,-0.10105 -1.29628,0.017 -0.73307,0.25176 -1.28935,0.92887 -1.39659,1.69993 -0.14532,1.04483 0.50932,2.03621 1.52495,2.30934 0.27946,0.0752 0.78396,0.0761 1.0686,0.002 z"
         id="path890" />
      <path
         style="fill:#040404;stroke-width:0.03907692;stroke:none;fill-opacity:1"
         d="m 149.29564,155.75878 c -0.94496,-0.25458 -1.68071,-0.97147 -1.98547,-1.93456 -0.0722,-0.22829 -0.0862,-0.36079 -0.0844,-0.80107 0.002,-0.46313 0.0148,-0.56571 0.10603,-0.84016 0.31404,-0.94514 1.09056,-1.66103 2.05972,-1.89891 0.12035,-0.0295 0.40406,-0.0513 0.64477,-0.0494 0.6323,0.005 1.03894,0.12798 1.55431,0.47059 l 0.27066,0.17994 0.4847,-0.4847 0.4847,-0.48469 -0.49879,-0.49768 -0.49878,-0.49768 -0.19502,0.13898 c -0.25827,0.18407 -0.60579,0.34685 -0.91794,0.42997 -0.34535,0.092 -1.0624,0.0918 -1.40677,-3.1e-4 -0.92522,-0.24747 -1.67628,-0.9593 -1.98156,-1.87808 -0.0912,-0.27444 -0.10414,-0.37703 -0.10603,-0.84015 -0.002,-0.58568 0.0583,-0.85728 0.2925,-1.30908 0.36502,-0.70412 1.06861,-1.25669 1.83667,-1.44243 0.33493,-0.081 0.98965,-0.0808 1.32362,3.1e-4 0.77686,0.18876 1.46704,0.73295 1.84114,1.45168 0.22117,0.42492 0.28741,0.71798 0.28932,1.28 0.002,0.45656 -0.01,0.54266 -0.11049,0.85034 -0.0617,0.18829 -0.17244,0.44237 -0.24605,0.56461 l -0.13384,0.22226 0.50961,0.50961 0.50961,0.50961 0.46502,-0.4638 0.46502,-0.46381 -0.15091,-0.23348 c -0.52574,-0.81342 -0.56305,-1.98003 -0.0905,-2.82869 0.3858,-0.6928 1.06701,-1.21769 1.81518,-1.39862 0.33493,-0.081 0.98965,-0.0808 1.32362,3.1e-4 0.94837,0.23044 1.69446,0.92657 2.02378,1.88826 0.0899,0.26247 0.10164,0.35886 0.10294,0.84342 0.001,0.49128 -0.009,0.57896 -0.10299,0.85969 -0.14683,0.43939 -0.35258,0.77102 -0.69262,1.11638 -0.72268,0.73399 -1.70194,1.00523 -2.71585,0.75226 -0.23967,-0.0598 -0.68712,-0.26646 -0.89055,-0.41132 l -0.11351,-0.0808 -0.46513,0.46392 -0.46514,0.46392 0.4533,0.45448 0.4533,0.45449 0.20125,-0.13592 c 0.87648,-0.59193 2.04483,-0.62304 2.97571,-0.0792 0.3383,0.19763 0.80984,0.66961 1.00724,1.00817 0.0811,0.13918 0.19439,0.39373 0.25166,0.56567 0.0919,0.27589 0.10425,0.37459 0.10512,0.84015 8.2e-4,0.43558 -0.0139,0.57523 -0.0846,0.80108 -0.30623,0.978 -1.0795,1.71582 -2.04386,1.95014 -0.33397,0.0811 -0.98869,0.0813 -1.32362,3.1e-4 -0.77037,-0.1863 -1.46923,-0.73744 -1.84114,-1.45197 -0.22629,-0.43475 -0.28847,-0.71595 -0.28738,-1.29954 8.7e-4,-0.4649 0.0133,-0.56469 0.10485,-0.84051 0.0571,-0.17213 0.17675,-0.43383 0.26584,-0.58154 l 0.16198,-0.26857 -0.45379,-0.4538 -0.4538,-0.45379 -0.49715,0.49715 -0.49715,0.49715 0.14209,0.26465 c 0.25122,0.46788 0.32494,0.77805 0.32296,1.3588 -0.002,0.56202 -0.0682,0.85508 -0.28932,1.28 -0.37191,0.71453 -1.07077,1.26567 -1.84114,1.45197 -0.35751,0.0865 -1.0318,0.0787 -1.38292,-0.0159 z m 1.13401,-0.66751 c 0.29714,-0.0539 0.72801,-0.26229 0.96229,-0.46547 0.23434,-0.20324 0.50447,-0.61332 0.61809,-0.93835 0.1935,-0.55352 0.0959,-1.29306 -0.23644,-1.79067 -0.40884,-0.61224 -1.02712,-0.94471 -1.75684,-0.94471 -0.60065,0 -1.05272,0.18928 -1.48802,0.62304 -0.71151,0.70899 -0.81105,1.777 -0.24502,2.62901 0.21805,0.32822 0.46286,0.54264 0.81473,0.71357 0.41889,0.2035 0.85354,0.26017 1.33121,0.17358 z m 6.48677,0 c 0.29714,-0.0539 0.72801,-0.26229 0.96229,-0.46547 0.23584,-0.20454 0.51017,-0.61844 0.61358,-0.92576 0.25257,-0.75057 0.0605,-1.56569 -0.50075,-2.12493 -0.43531,-0.43376 -0.88737,-0.62304 -1.48802,-0.62304 -0.92734,0 -1.73193,0.58813 -2.00249,1.46376 -0.11756,0.38044 -0.11438,0.91755 0.008,1.27162 0.29575,0.85912 1.06252,1.42348 1.95849,1.44148 0.11964,0.002 0.32186,-0.0145 0.44939,-0.0377 z m -6.37057,-6.30999 c 0.6917,-0.18007 1.26353,-0.72377 1.47246,-1.40006 0.11852,-0.38363 0.11575,-0.91933 -0.007,-1.27469 -0.33867,-0.9838 -1.28743,-1.56489 -2.31135,-1.41565 -0.58878,0.0858 -1.08612,0.40142 -1.41667,0.89898 -0.56603,0.85201 -0.46649,1.92002 0.24502,2.62901 0.28524,0.28423 0.52012,0.42949 0.87785,0.5429 0.29808,0.0945 0.81705,0.1034 1.13927,0.0195 z m 6.55452,-0.0176 c 0.36917,-0.11403 0.60127,-0.25591 0.89117,-0.54478 0.71151,-0.70899 0.81104,-1.777 0.24502,-2.62901 -0.45173,-0.67996 -1.22497,-1.01914 -2.04941,-0.89898 -0.58878,0.0858 -1.08612,0.40142 -1.41667,0.89898 -0.2543,0.38278 -0.34883,0.6895 -0.35193,1.1419 -0.007,1.02827 0.65808,1.85582 1.67466,2.08358 0.2245,0.0503 0.76712,0.0225 1.00716,-0.0517 z"
         id="path888" />
      <path
         style="fill:#040404;stroke-width:0.03907692;stroke:none;fill-opacity:1"
         d="m 149.32747,155.75786 c -0.81231,-0.21001 -1.46298,-0.74422 -1.83163,-1.50379 -0.77512,-1.59706 0.0771,-3.45279 1.80613,-3.93298 0.76739,-0.21312 1.76909,-0.0262 2.36163,0.44064 0.0783,0.0617 0.16107,0.11219 0.1839,0.11219 0.0228,0 0.25476,-0.21387 0.5154,-0.47526 l 0.47389,-0.47525 -0.50773,-0.50774 -0.50774,-0.50774 -0.15006,0.11826 c -0.57833,0.45578 -1.58214,0.65634 -2.31882,0.4633 -1.08017,-0.28306 -1.86536,-1.10657 -2.08944,-2.19142 -0.12384,-0.59956 -0.0467,-1.18224 0.23284,-1.75815 0.47918,-0.98731 1.42623,-1.58142 2.52091,-1.58142 1.09962,0 2.03979,0.59003 2.51989,1.58142 0.42739,0.88252 0.38058,1.85606 -0.12942,2.6919 l -0.0927,0.1519 0.51581,0.51688 0.51582,0.51687 0.4651,-0.46719 0.4651,-0.4672 -0.0727,-0.10389 c -0.58622,-0.83789 -0.66942,-1.91137 -0.22006,-2.83927 0.47769,-0.9864 1.42582,-1.58142 2.5199,-1.58142 1.09936,0 2.03797,0.58888 2.52059,1.58142 0.90842,1.86822 -0.44208,4.0204 -2.52059,4.01683 -0.57701,-9.9e-4 -1.05631,-0.14118 -1.53675,-0.44947 l -0.18884,-0.12119 -0.46583,0.46462 -0.46584,0.46462 0.45594,0.45713 0.45594,0.45713 0.15953,-0.10935 c 1.02178,-0.70036 2.39803,-0.64238 3.3629,0.14166 0.8056,0.65463 1.18299,1.71434 0.97552,2.73928 -0.0767,0.37907 -0.34412,0.93462 -0.59109,1.22811 -1.13315,1.34659 -3.1845,1.34613 -4.32297,-9.6e-4 -0.24786,-0.29329 -0.51277,-0.84654 -0.59039,-1.23298 -0.14938,-0.74376 -0.0174,-1.41812 0.41674,-2.12945 l 0.0799,-0.13094 -0.45483,-0.45483 -0.45483,-0.45483 -0.50491,0.5038 -0.50491,0.50379 0.0855,0.14059 c 0.18063,0.29686 0.28017,0.55469 0.35613,0.92244 0.20866,1.01015 -0.19238,2.08875 -1.02231,2.74955 -0.65039,0.51784 -1.6122,0.72143 -2.42071,0.51239 z m 1.19551,-0.68221 c 0.54077,-0.14391 1.09574,-0.56602 1.33734,-1.01718 0.45257,-0.8451 0.30821,-1.82426 -0.36844,-2.49898 -0.33978,-0.33881 -0.6643,-0.5077 -1.14526,-0.59601 -0.29795,-0.0547 -0.36179,-0.0547 -0.65974,0 -0.44951,0.0825 -0.7905,0.25359 -1.11411,0.55887 -0.69911,0.65951 -0.85949,1.67735 -0.3996,2.53612 0.23708,0.4427 0.7937,0.87077 1.32026,1.01535 0.25702,0.0706 0.76782,0.0715 1.02955,0.002 z m 6.48677,0 c 0.54077,-0.14391 1.09574,-0.56602 1.33734,-1.01718 0.46671,-0.87151 0.29954,-1.88235 -0.42288,-2.55701 -0.33294,-0.31093 -0.67431,-0.47428 -1.14873,-0.54971 -0.59586,-0.0947 -1.23838,0.12009 -1.72099,0.57536 -0.69117,0.65201 -0.85118,1.67866 -0.39455,2.53136 0.23708,0.4427 0.7937,0.87077 1.32026,1.01535 0.25702,0.0706 0.76782,0.0715 1.02955,0.002 z m -6.62481,-6.25147 c 0.45102,-0.0863 0.77541,-0.2591 1.10694,-0.58969 0.5541,-0.55252 0.75561,-1.28407 0.55406,-2.01139 -0.11281,-0.40708 -0.24902,-0.64153 -0.54656,-0.94074 -0.65963,-0.66332 -1.64826,-0.81253 -2.47909,-0.37415 -0.28381,0.14974 -0.70406,0.56017 -0.84712,0.82731 -0.14519,0.27112 -0.26669,0.73472 -0.266,1.01499 0.002,0.99165 0.73326,1.87641 1.71064,2.07096 0.34778,0.0692 0.41823,0.0695 0.76713,0.003 z m 6.48067,10e-4 c 0.46531,-0.089 0.77436,-0.25136 1.10144,-0.57854 0.5705,-0.57066 0.77027,-1.28536 0.56566,-2.02371 -0.11279,-0.40699 -0.24928,-0.64201 -0.54427,-0.9371 -0.66813,-0.66836 -1.59025,-0.81324 -2.45778,-0.38615 -0.30028,0.14782 -0.71606,0.54687 -0.87072,0.83566 -0.14576,0.2722 -0.26684,0.73561 -0.26518,1.015 0.006,0.99321 0.73558,1.87704 1.70982,2.07095 0.34693,0.0691 0.41851,0.0694 0.76103,0.004 z"
         id="path886" />
    </g>
    <path
       style="font-weight:bold;font-size:21.1961px;line-height:1.25;font-family:Lato;-inkscape-font-specification:'Lato Bold';letter-spacing:0px;word-spacing:0px;fill:#040404;stroke-width:0.529902"
       d="M 77.434505,264.52245 72.67598,279.84723 H 70.100654 L 66.75167,269.37636 q -0.137774,-0.38153 -0.254353,-0.93263 -0.06359,0.26495 -0.127177,0.49811 -0.06359,0.23315 -0.137774,0.43452 l -3.380778,10.47087 h -2.585925 l -4.747926,-15.32478 h 2.384561 q 0.370932,0 0.614687,0.18017 0.254353,0.16956 0.339138,0.46631 l 2.60712,9.16731 q 0.08479,0.33914 0.158971,0.74187 0.08478,0.39212 0.169569,0.82664 0.08478,-0.44511 0.180167,-0.83724 0.10598,-0.39213 0.222559,-0.73127 l 3.009846,-9.16731 q 0.08478,-0.24376 0.328539,-0.44512 0.254354,-0.20136 0.614687,-0.20136 h 0.837246 q 0.370932,0 0.604089,0.18017 0.233157,0.18016 0.349736,0.46631 l 2.999248,9.16731 q 0.222559,0.65708 0.402726,1.51552 0.137775,-0.83724 0.307343,-1.51552 l 2.607121,-9.16731 q 0.06359,-0.26495 0.317941,-0.45572 0.264951,-0.19076 0.625285,-0.19076 z m 7.185473,8.63741 q 0,-0.50871 -0.148373,-0.95383 -0.137774,-0.45571 -0.423922,-0.79485 -0.286147,-0.33914 -0.731265,-0.5299 -0.43452,-0.20136 -1.017413,-0.20136 -1.133991,0 -1.79107,0.64648 -0.646481,0.64648 -0.826648,1.83346 z m -4.991681,1.57911 q 0.06359,0.83724 0.296745,1.45193 0.233157,0.60409 0.614687,1.00682 0.38153,0.39212 0.900834,0.59349 0.529903,0.19076 1.165786,0.19076 0.635883,0 1.091599,-0.14837 0.466314,-0.14837 0.805452,-0.32854 0.349735,-0.18017 0.604088,-0.32854 0.264952,-0.14837 0.508707,-0.14837 0.328539,0 0.48751,0.24375 l 0.752462,0.95383 q -0.43452,0.5087 -0.975021,0.85844 -0.5405,0.33914 -1.133991,0.5511 -0.582893,0.20136 -1.19758,0.28615 -0.604089,0.0848 -1.176384,0.0848 -1.133991,0 -2.109011,-0.37093 -0.975021,-0.38153 -1.695689,-1.1128 -0.720667,-0.74186 -1.133991,-1.82286 -0.413324,-1.0916 -0.413324,-2.52234 0,-1.11279 0.360334,-2.08781 0.360334,-0.98562 1.028011,-1.70629 0.678275,-0.73127 1.642698,-1.15519 0.97502,-0.42392 2.193796,-0.42392 1.028011,0 1.897051,0.32854 0.86904,0.32854 1.494325,0.96442 0.625285,0.62529 0.975021,1.54732 0.360333,0.91143 0.360333,2.08781 0,0.59349 -0.127176,0.80546 -0.127177,0.20136 -0.487511,0.20136 z m 11.922814,2.28918 q 0.445118,0.5405 0.964423,0.76306 0.529902,0.22256 1.112795,0.22256 0.604089,0 1.081001,-0.21196 0.48751,-0.22256 0.826648,-0.67828 0.339137,-0.46631 0.519304,-1.17638 0.180167,-0.72067 0.180167,-1.71689 0,-1.79107 -0.593491,-2.58592 -0.593491,-0.80545 -1.706286,-0.80545 -0.752461,0 -1.314158,0.34973 -0.561697,0.33914 -1.070403,0.96442 z m 0,-6.71917 q 0.657079,-0.68887 1.451933,-1.0916 0.805452,-0.41332 1.833462,-0.41332 0.943227,0 1.695688,0.37093 0.76306,0.37093 1.292963,1.07041 0.5405,0.68887 0.826648,1.67449 0.286147,0.98562 0.286147,2.21499 0,1.32476 -0.32854,2.40576 -0.328539,1.081 -0.943226,1.85466 -0.604089,0.76306 -1.462531,1.18698 -0.858442,0.42392 -1.907649,0.42392 -0.508706,0 -0.92203,-0.10598 -0.413324,-0.0954 -0.76306,-0.27555 -0.349736,-0.18017 -0.646481,-0.43452 -0.286147,-0.26495 -0.551099,-0.58289 l -0.116578,0.73126 q -0.06359,0.27555 -0.222559,0.39213 -0.148373,0.11658 -0.413324,0.11658 h -1.727482 v -15.7487 h 2.617718 z m 24.407309,1.87586 q 0,1.68509 -0.5617,3.12642 -0.5511,1.43074 -1.56851,2.47995 -1.01741,1.0492 -2.44815,1.6427 -1.43074,0.58289 -3.17941,0.58289 -1.73809,0 -3.16882,-0.58289 -1.43074,-0.5935 -2.45875,-1.6427 -1.01741,-1.04921 -1.57911,-2.47995 -0.5617,-1.44133 -0.5617,-3.12642 0,-1.68509 0.5617,-3.11583 0.5617,-1.44133 1.57911,-2.49054 1.02801,-1.04921 2.45875,-1.6321 1.43073,-0.59349 3.16882,-0.59349 1.16578,0 2.19379,0.27555 1.02801,0.26495 1.88645,0.76306 0.85845,0.48751 1.53672,1.19758 0.68887,0.69947 1.16579,1.56851 0.47691,0.86904 0.72066,1.88645 0.25436,1.01742 0.25436,2.14081 z m -2.91447,0 q 0,-1.26117 -0.33913,-2.25739 -0.33914,-1.00681 -0.96443,-1.70628 -0.62528,-0.69947 -1.52612,-1.07041 -0.89023,-0.37093 -2.01362,-0.37093 -1.1234,0 -2.02423,0.37093 -0.89024,0.37094 -1.52612,1.07041 -0.62529,0.69947 -0.96442,1.70628 -0.33914,0.99622 -0.33914,2.25739 0,1.26117 0.33914,2.26798 0.33913,0.99622 0.96442,1.69569 0.63588,0.68887 1.52612,1.0598 0.90083,0.37094 2.02423,0.37094 1.12339,0 2.01362,-0.37094 0.90084,-0.37093 1.52612,-1.0598 0.62529,-0.69947 0.96443,-1.69569 0.33913,-1.00681 0.33913,-2.26798 z m 19.03412,0 q 0,1.68509 -0.5617,3.09463 -0.5617,1.40954 -1.57911,2.42695 -1.01741,1.01742 -2.44815,1.57911 -1.43073,0.5617 -3.17941,0.5617 h -5.83953 v -15.32478 h 5.83953 q 1.74868,0 3.17941,0.57229 1.43074,0.5617 2.44815,1.57911 1.01741,1.00682 1.57911,2.41636 0.5617,1.40954 0.5617,3.09463 z m -2.92506,0 q 0,-1.26117 -0.33914,-2.25739 -0.32854,-1.00681 -0.96442,-1.69568 -0.62529,-0.69948 -1.52612,-1.07041 -0.89024,-0.37093 -2.01363,-0.37093 h -2.97805 v 10.78882 h 2.97805 q 1.12339,0 2.01363,-0.37094 0.90083,-0.37093 1.52612,-1.0598 0.63588,-0.69947 0.96442,-1.69569 0.33914,-1.00681 0.33914,-2.26798 z m 22.05453,-7.66239 v 15.32478 h -2.51173 v -9.89858 q 0,-0.59349 0.0636,-1.28236 l -4.63134,8.701 q -0.32854,0.62528 -1.00682,0.62528 h -0.40273 q -0.67827,0 -1.00681,-0.62528 l -4.68434,-8.7328 q 0.0318,0.34974 0.053,0.68888 0.0212,0.33913 0.0212,0.62528 v 9.89858 h -2.51174 v -15.32478 h 2.1514 q 0.19077,0 0.32854,0.0106 0.13778,0.0106 0.24376,0.053 0.11658,0.0424 0.20136,0.13777 0.0954,0.0954 0.18017,0.25435 l 4.58895,8.51024 q 0.18017,0.33914 0.32854,0.69947 0.15898,0.36033 0.30735,0.74186 0.14837,-0.39212 0.30734,-0.75246 0.15897,-0.37093 0.33914,-0.71007 l 4.52537,-8.48904 q 0.0848,-0.15897 0.18016,-0.25435 0.0954,-0.0954 0.20137,-0.13777 0.11657,-0.0424 0.25435,-0.053 0.13777,-0.0106 0.32854,-0.0106 z"
       id="text902"
       aria-label="WebODM" />
  </g>
</svg>
